<svg xmlns="http://www.w3.org/2000/svg" xmlns:xlink="http://www.w3.org/1999/xlink" width="66.037" height="65" viewBox="0 0 66.037 65">
  <defs>
    <clipPath id="clip-path">
      <ellipse id="Ellisse_951" data-name="Ellisse 951" cx="33.019" cy="32.5" rx="33.019" ry="32.5" transform="translate(0.423 0.759)" fill="#fff" stroke="#1e85d9" stroke-width="2"/>
    </clipPath>
    <clipPath id="clip-path-2">
      <rect id="Rettangolo_143358" data-name="Rettangolo 143358" width="86.061" height="82.554" fill="#fff"/>
    </clipPath>
  </defs>
  <g id="Gruppo_di_maschere_182" data-name="Gruppo di maschere 182" transform="translate(-0.423 -0.759)" clip-path="url(#clip-path)">
    <path id="Tracciato_34692" data-name="Tracciato 34692" d="M33.019,0C51.254,0,66.037,14.551,66.037,32.5S51.254,65,33.019,65,0,50.449,0,32.5,14.783,0,33.019,0Z" transform="translate(0.423 0.759)" fill="#1e85d9"/>
    <path id="Tracciato_34693" data-name="Tracciato 34693" d="M-19818.264-20769.881l-.531.934-.809-1.5.955.344Z" transform="translate(19831.895 20794.535)" fill="#fff"/>
    <path id="Tracciato_34694" data-name="Tracciato 34694" d="M-19837.412-20817.229l.973-.637.283-1.154-.789.324-.141.611Z" transform="translate(19848.412 20839.639)" fill="#fff"/>
    <path id="Tracciato_34695" data-name="Tracciato 34695" d="M-19821.225-20834.687v-.418l.65-.59-.18.75Z" transform="translate(19833.402 20855.123)" fill="#fff"/>
    <path id="Tracciato_34696" data-name="Tracciato 34696" d="M-19744.969-20708.281l1.18.484.385.314h-.953Z" transform="translate(19762.682 20736.813)" fill="#fff"/>
    <path id="Tracciato_34697" data-name="Tracciato 34697" d="M-19667.258-20683.73l.379.3.813-.137.152-.383-.916-.047Z" transform="translate(19690.613 20714.264)" fill="#fff"/>
    <g id="Ellisse_950" data-name="Ellisse 950" transform="translate(0.423 0.759)" fill="none" stroke="#1e85d9" stroke-width="1">
      <ellipse cx="33.019" cy="32.5" rx="33.019" ry="32.5" stroke="none"/>
      <ellipse cx="33.019" cy="32.5" rx="32.519" ry="32" fill="none"/>
    </g>
    <g id="Raggruppa_18466" data-name="Raggruppa 18466" transform="translate(-133.993 -134.473)">
      <g id="Raggruppa_18465" data-name="Raggruppa 18465" transform="translate(141.868 126.454)" clip-path="url(#clip-path-2)">
        <path id="Tracciato_34698" data-name="Tracciato 34698" d="M214.162,213.434c.107-.3.4-.512.081-.567a3.844,3.844,0,0,1-.4-.081c-.269.162-.512.567-.4.7s.622.243.729-.055" transform="translate(-161.201 -160.732)" fill="#fff"/>
        <path id="Tracciato_34699" data-name="Tracciato 34699" d="M165.2,231.211a.624.624,0,0,0-.214.081c-.081.457-.243,1.053-.029,1.3s.784.457.784.026a1.66,1.66,0,0,0-.243-.946c-.136-.188-.162-.486-.3-.457" transform="translate(-124.526 -174.648)" fill="#fff"/>
        <path id="Tracciato_34700" data-name="Tracciato 34700" d="M105.169,269.172l-.719,1.069-.865.367-.35.482-.081,1.38a1.7,1.7,0,0,0-.363.93,5.147,5.147,0,0,0,.363,1.377l.843.054.7-.9.81-2.753.12-.69.042-.648a4.75,4.75,0,0,0-.311-.67.115.115,0,0,0-.185.006" transform="translate(-77.645 -203.286)" fill="#fff"/>
        <path id="Tracciato_34701" data-name="Tracciato 34701" d="M84.644,183.681a1.145,1.145,0,0,0,.13-.023l.058-.029c.117-.078.23-.159.343-.243a.389.389,0,0,0,.091-.087.248.248,0,0,0,.013-.12.382.382,0,0,0-.149.023,1.132,1.132,0,0,1-.136.081.445.445,0,0,1-.13.023l-.308.02a.643.643,0,0,0-.224.1s0,.168.074.211a.452.452,0,0,0,.237.048" transform="translate(-63.702 -138.367)" fill="#fff"/>
        <path id="Tracciato_34702" data-name="Tracciato 34702" d="M70.3,183.67c.065,0,.13,0,.194-.006a.2.2,0,0,0,.1-.029.085.085,0,0,0,.036-.094c-.016-.035-.062-.048-.1-.058-.061-.01-.12-.023-.181-.032-.1-.02-.211-.042-.314-.062a1.07,1.07,0,0,0-.5-.016.128.128,0,0,0-.036.019.054.054,0,0,0,0,.062.134.134,0,0,0,.055.039,1.931,1.931,0,0,0,.735.178" transform="translate(-52.494 -138.495)" fill="#fff"/>
        <path id="Tracciato_34703" data-name="Tracciato 34703" d="M48.388,132.413a.08.08,0,0,0,.055.026c.149.013.256.11.256.175s-.055.217-.133.178-.191-.029-.136.068.12.188.23.12a.5.5,0,0,0,.243-.418.789.789,0,0,1,.039-.392c.039-.062.162-.032.126-.178,0-.013-.01-.033-.016-.052-.084-.2-.123-.256-.246-.256a.308.308,0,0,0-.2.081.375.375,0,0,0-.217.363c.036.091-.049.23,0,.285" transform="translate(-36.539 -99.47)" fill="#fff"/>
        <path id="Tracciato_34704" data-name="Tracciato 34704" d="M51.8,177.742l-.019-.039-.053-.006-.309.068-.187.032-.154-.015-.241-.057-.277.029-.1.185.135.091.165.062.356.129.253.163.1.048.157.006.053-.055,0-.032-.015-.292.1-.262Z" transform="translate(-38.112 -134.227)" fill="#fff"/>
        <path id="Tracciato_34705" data-name="Tracciato 34705" d="M43.633,171.277v.6l.169.194h.169l.1-.1.043-.406-.043-.419-.1-.119-.244.095Z" transform="translate(-32.714 -129.195)" fill="#fff"/>
        <path id="Tracciato_34706" data-name="Tracciato 34706" d="M44.267,168.251a.139.139,0,0,0,.033-.005c.092-.022.16-.339.16-.429a.109.109,0,0,0-.022-.062.34.34,0,0,0-.114-.1.293.293,0,0,0-.228.361c.041.157.1.23.171.23" transform="translate(-33.075 -126.522)" fill="#fff"/>
        <path id="Tracciato_34707" data-name="Tracciato 34707" d="M33.741,173.794a.436.436,0,0,0-.295.113c-.081.081.078.243.295.243s.136-.327,0-.356" transform="translate(-25.248 -131.276)" fill="#fff"/>
        <path id="Tracciato_34708" data-name="Tracciato 34708" d="M12.425,137.662c.486-.055.943-.515,1.16-.515s.337-.606.282-1.066a.345.345,0,0,1,.016-.171c.091-.227.437-.133.052-.732a.423.423,0,0,0-.434-.149,1.516,1.516,0,0,0-.314.068.228.228,0,0,0-.149.3c.042.117.042.224-.237.24-.457.026-.632-.042-.554.12a2.256,2.256,0,0,1,.149.9c-.026.243-.457,1.053.029,1" transform="translate(-9.212 -101.992)" fill="#fff"/>
        <path id="Tracciato_34709" data-name="Tracciato 34709" d="M18.206,125.4c-.081.139.243.272.314.314s.01.22-.091.353-.091.191.023.188c.094,0,.23.042.107.123s-.233.224-.175.282c.036.036.191-.052.191.055s.045.224.107.217c.088-.013.149-.243.256-.243s.029.243-.039.392.107.295.107.295a3.617,3.617,0,0,1,.512-.107c.123,0-.039.256-.094.3s.2.24.2.24c.146.084.094.366.039.554s-.538.029-.538.029-.016.282.107.35-.029.4-.175.46-.2.311-.2.311a1.615,1.615,0,0,1,.379.12c.068.055.4.026.554.094s-.311.123-.541.136-.606.622-.606.622.146.188.256.107a.726.726,0,0,1,.363-.068s.243-.107.269-.243.677-.081.907-.055a3.843,3.843,0,0,0,1-.295.353.353,0,0,0-.188-.2c-.149-.068.188-.282.405-.525s-.11-.567-.34-.554-.162.013-.214-.107-.026-.272-.11-.324-.12-.554-.12-.554a2.1,2.1,0,0,1-.337-.217,5.256,5.256,0,0,0-.661-.648c-.149-.081-.11-.392-.081-.554a7.854,7.854,0,0,1,.444-.943,1.389,1.389,0,0,0-.648-.11c-.269.055-.243.042-.243-.039s.285-.366.4-.567-.729-.094-.917-.068-.042.3-.123.5c0,0-.087.182-.149.285s-.12.078-.11-.052-.162.01-.243.152" transform="translate(-13.743 -94.015)" fill="#fff"/>
        <path id="Tracciato_34710" data-name="Tracciato 34710" d="M17.8,125.668a.107.107,0,0,0,.078-.013.081.081,0,0,0,.023-.039,1.7,1.7,0,0,1,.071-.259.15.15,0,0,0,.032-.094c-.01-.045-.068-.055-.113-.055a.356.356,0,0,0-.117.01.232.232,0,0,0-.129.13.452.452,0,0,0-.026.188.252.252,0,0,0,0,.049c.023.065.107.081.178.084" transform="translate(-13.31 -94.578)" fill="#fff"/>
        <path id="Tracciato_34711" data-name="Tracciato 34711" d="M16.732,127.693a.106.106,0,0,0,.039-.052c.026-.055.094-.146.087-.211a.193.193,0,0,0-.1-.087c-.065-.02-.1.045-.12.078a.269.269,0,0,0,0,.233.075.075,0,0,0,.091.039" transform="translate(-12.55 -96.188)" fill="#fff"/>
        <path id="Tracciato_34712" data-name="Tracciato 34712" d="M323.388,311.5a4.22,4.22,0,0,0-.334-.8.468.468,0,0,0-.463-.246l-.282-.14.051.163.707,1.632-.127.392-.171.407.5.452a.758.758,0,0,1-.068.463c-.055.1.444.068.444.068l.609-1.095.4-.782-.278-.16s-.878.081-.985-.353" transform="translate(-243.462 -234.401)" fill="#fff"/>
        <path id="Tracciato_34713" data-name="Tracciato 34713" d="M315.26,323.853c-.029-.006-.065-.019-.1-.029a.9.9,0,0,0-.347,0s-.275.188-.307.363c-.081.434-.2.868-.486.9-.434.055-1.082.865-1.244,1.027a2.368,2.368,0,0,0-.154.635l.533.392.614-.254.575-.828.437-.555.534-.686s.162-.917-.055-.972" transform="translate(-236.144 -244.593)" fill="#fff"/>
        <path id="Tracciato_34714" data-name="Tracciato 34714" d="M286.664,157.215l.3-.029-.136-.133Z" transform="translate(-216.536 -118.633)" fill="#fff"/>
        <path id="Tracciato_34715" data-name="Tracciato 34715" d="M283.393,159.306l-.188-.055c-.136.11-.353.3-.136.3s.324-.243.324-.243" transform="translate(-213.751 -120.293)" fill="#fff"/>
        <path id="Tracciato_34716" data-name="Tracciato 34716" d="M291.939,256.489a.137.137,0,0,0-.042-.117.234.234,0,0,0-.113-.065l-.34-.12c.01-.039-.055-.058-.081-.029s-.026.071-.026.11c.016.217.052.473.243.583a1.484,1.484,0,0,0,.615.2c.447-.055-.353-.188-.256-.56" transform="translate(-220.066 -193.483)" fill="#fff"/>
        <path id="Tracciato_34717" data-name="Tracciato 34717" d="M285.075,252.164c.019.1.667.437.771.586s.049.184.1.2.12-.182.081-.3a3.707,3.707,0,0,0-.92-.606s-.052.02-.032.12" transform="translate(-215.333 -190.386)" fill="#fff"/>
        <path id="Tracciato_34718" data-name="Tracciato 34718" d="M281.2,255.474a.315.315,0,0,0-.237.256c-.022.22.246.353.467.356a2.011,2.011,0,0,0,1.289-.635c.049-.042.1-.11.075-.168a.158.158,0,0,0-.068-.062.748.748,0,0,0-.288-.126c-.162-.029-.331.168-.331.168a.264.264,0,0,1-.217.217.9.9,0,0,1-.324-.013.776.776,0,0,0-.366.007" transform="translate(-212.231 -192.688)" fill="#fff"/>
        <path id="Tracciato_34719" data-name="Tracciato 34719" d="M254.9,249.868l-.023-.01a2.686,2.686,0,0,0-1.564-.162l-.7.486-.379-.836-1.185-.162-.46.162.891.324-.136.4.324.35,1.568.434.754,1,.055.622.894.075a2.707,2.707,0,0,0,1.1-.049,2.68,2.68,0,0,1,.839-.217s1.134.946,1.753.946-.269-.567-.269-.567a7.029,7.029,0,0,1-.7-1.053c-.107-.3-.674-.729-.891-.917a16.154,16.154,0,0,0-1.866-.829" transform="translate(-189.281 -188.225)" fill="#fff"/>
        <path id="Tracciato_34720" data-name="Tracciato 34720" d="M279.094,161.456c.136.055.758-.4.758-.4l-.243-.026c-.081,0-.648.376-.515.431" transform="translate(-210.803 -121.633)" fill="#fff"/>
        <path id="Tracciato_34721" data-name="Tracciato 34721" d="M236.1,270.108l-1.185-1.594-.729-1.3-.567-1.377-.379.217-.188,2.106-.3.637s-.365.023-.46.011a8.027,8.027,0,0,1-1.646-1.27c-.107-.188.4-.674.486-.972s-2.241-.081-2.241-.081a8.472,8.472,0,0,0-.81,1.082c-.133.295-.35,0-.512-.162s-.891-.029-.891-.029l-1.321.92-.3.619-.3.558-.781.414-2.161.839-.431,1.16-.094.435.418,1.129.461,1.557-.03,1.388.48.536.87-.105,1.807-.4,1.889-.865,1.672-.254,1.406,1.226.946-.133.7,1.024.858.944,1.328.462,1.862-.3.729-.784,1.186-2.753.2-1.388-.47-1.5Z" transform="translate(-167.157 -200.808)" fill="#fff"/>
        <path id="Tracciato_34722" data-name="Tracciato 34722" d="M275.907,323.714c-.194,0-.434-.188-.674-.162-.2.023-.126.324-.055.512.162.431.181.946.46.946.376,0,.862-.92.862-.92a.762.762,0,0,0-.593-.376" transform="translate(-207.804 -244.399)" fill="#fff"/>
        <path id="Tracciato_34723" data-name="Tracciato 34723" d="M276.914,163.278l-.136-.055c-.162.136-.486.6-.269.486a1.278,1.278,0,0,0,.4-.431" transform="translate(-208.811 -123.293)" fill="#fff"/>
        <path id="Tracciato_34724" data-name="Tracciato 34724" d="M253.518,164.263a9.041,9.041,0,0,1-.486,1.266s-.839.136-.92.379-.619.567-.619.567l-1.189.4-.622.512s-.35.243-.324.379.191-.026.272.162a3.411,3.411,0,0,1,.081.674c.026.136.431-.243.431-.243a5.952,5.952,0,0,0,.081-.81.316.316,0,0,1,.269-.324c.049,0,.168,0,.309-.011a.268.268,0,0,0-.173.2c-.162.081-.188.486-.188.486s.35.162.35,0,.107-.3.188-.3a.61.61,0,0,0,.379-.026.222.222,0,0,0,0-.393l.218-.012.7.026s1.351-.541,1.568-.648.133-1.053.133-1.053l.515-1.189a6.314,6.314,0,0,1-.324-1.322.818.818,0,0,1,.619,0c.081.081.379.026.486-.188s.648-.217.677-.324a.413.413,0,0,0,0-.123.612.612,0,0,0-.509-.515c-.233-.039-.46-.1-.46-.146,0-.081-.567-.567-.567-.567s.081.917-.162,1.108-.784.512-.729.781.269.46.188.622a1.653,1.653,0,0,0-.188.622" transform="translate(-188.356 -121.713)" fill="#fff"/>
        <path id="Tracciato_34725" data-name="Tracciato 34725" d="M270.131,143.234l.353.052-.243-.781.269-1.053.188-.515-.295-1.377c0-.755.052-1.591-.162-1.267a2.383,2.383,0,0,0-.434,1.458,16.939,16.939,0,0,1,.029,1.969l.052.729-.107,1.134Z" transform="translate(-203.784 -104.408)" fill="#fff"/>
        <path id="Tracciato_34726" data-name="Tracciato 34726" d="M236.117,231.956l-.538.541.046.129.223-.184.648-.081.4.567.266.082.113-.137.026-.376.3.081.026-.758-.405-.4-.136.243-.35.272Z" transform="translate(-177.949 -174.803)" fill="#fff"/>
        <path id="Tracciato_34727" data-name="Tracciato 34727" d="M240.584,226.426l.023.4.058.039.126-.052.314-.513-.007-.6-.252-.061-.156.045.143.156-.049.2Z" transform="translate(-181.73 -170.443)" fill="#fff"/>
        <path id="Tracciato_34728" data-name="Tracciato 34728" d="M232.831,217.5l.324.486.862-.029.081.486.159.151.3-.151-.431-.836-.4-.166-.252-.265.324-.92-.115-.572a.317.317,0,0,0-.157-.047c-.068.007-.143.01-.21.016-.207.01-.424.363-.424.363a5.062,5.062,0,0,1-.175.619c-.107.243.11.865.11.865" transform="translate(-175.767 -162.888)" fill="#fff"/>
        <path id="Tracciato_34729" data-name="Tracciato 34729" d="M238.093,230.065l0-.363.1-.353-.185.029-.075.045-.068.279-.01.282Z" transform="translate(-179.669 -173.243)" fill="#fff"/>
        <path id="Tracciato_34730" data-name="Tracciato 34730" d="M235.808,226.546l-.016.068-.021.374.128.443.071.09.094-.022.263-.656-.153-.3Z" transform="translate(-178.093 -171.123)" fill="#fff"/>
        <path id="Tracciato_34731" data-name="Tracciato 34731" d="M233.329,205.186c.107.026.457-.758.457-.865s.272-.593.136-.593a2.259,2.259,0,0,0-.3.026c-.214.162-.512.541-.486.784s.081.619.191.648" transform="translate(-176.104 -153.889)" fill="#fff"/>
        <path id="Tracciato_34732" data-name="Tracciato 34732" d="M228.869,229.52a2.87,2.87,0,0,0-.4.289s-.544.6-.382.6a2.9,2.9,0,0,0,.65-.438s.431-.414.458-.453c.055-.081-.25-.029-.324,0" transform="translate(-172.265 -173.339)" fill="#fff"/>
        <path id="Tracciato_34733" data-name="Tracciato 34733" d="M246.576,251.975l-.007.389.1.032.453.075.356.058.382-.019.088-.162-.049-.055-1.318-.327Z" transform="translate(-186.25 -190.326)" fill="#fff"/>
        <path id="Tracciato_34734" data-name="Tracciato 34734" d="M245.861,244.141l-.22-.081-.262.178.055.253-.045.418.026.3.249.113.146-.577a.884.884,0,0,0,.292-.155c.065-.075-.007-.275-.007-.275Z" transform="translate(-185.351 -184.355)" fill="#fff"/>
        <path id="Tracciato_34735" data-name="Tracciato 34735" d="M238.77,263.107l.46.217,1.189-.674-1,.052Z" transform="translate(-180.359 -198.398)" fill="#fff"/>
        <path id="Tracciato_34736" data-name="Tracciato 34736" d="M235,245.626s-.055-.363-.24-.382a1.626,1.626,0,0,0-.535.107l-.913-.016-.658.5.47-.068,1.587-.049Z" transform="translate(-175.738 -185.247)" fill="#fff"/>
        <path id="Tracciato_34737" data-name="Tracciato 34737" d="M234.77,261l-1.3.188.029.3,1.185-.055Z" transform="translate(-176.359 -197.147)" fill="#fff"/>
        <path id="Tracciato_34738" data-name="Tracciato 34738" d="M230.654,249.885l.194.6.013.586s.282.262.415.156c0-.214,0-.645,0-.645l.1-.3.25-.045.178.042.185.318.415.223.2-.385-.392-.256-.136-.508.457-.088s-.295-.531-.557-.5c-.35.035-1.16.191-1.16.191Z" transform="translate(-174.229 -188.143)" fill="#fff"/>
        <path id="Tracciato_34739" data-name="Tracciato 34739" d="M231.762,263.856l-.486.055.619.35Z" transform="translate(-174.698 -199.308)" fill="#fff"/>
        <path id="Tracciato_34740" data-name="Tracciato 34740" d="M226.747,262.393l1.108-.136-.677-.162Z" transform="translate(-171.278 -197.978)" fill="#fff"/>
        <path id="Tracciato_34741" data-name="Tracciato 34741" d="M214.162,238.362a7.071,7.071,0,0,0,.379,1.16c.052.3.755.515.755.515l1.241.269.891-.512.353-1.163s.593-.324.431-.4-.593-.674-.46-.943a1.373,1.373,0,0,1,.324-.318c.269-.227.548-.467.191-.628-.541-.243-.473-.577-.7-.622-.084-.016-.243.243-.243.243-.117.1-.249.214-.392.334-.117.1-.24.207-.366.314-.389.327-.774.651-1,.81-.376.272-.538.434-.891.434a.912.912,0,0,0-.282.032,1.764,1.764,0,0,0,.122.216,1.764,1.764,0,0,1-.122-.216c-.165.055-.246.185-.23.479" transform="translate(-161.769 -178.051)" fill="#fff"/>
        <path id="Tracciato_34742" data-name="Tracciato 34742" d="M213.178,258.87s-1.1-.162-.891-.214c.163-.041.2-.328.2-.328l-.309-.025s-1.053.081-1.241.081a.738.738,0,0,1-.3-.052,2.869,2.869,0,0,0-1.16-.324c-.272.026.162.593.162.593a14.011,14.011,0,0,0,2.076.4c.541,0,1.27.136,1.432.136s.026-.272.026-.272" transform="translate(-158.168 -194.889)" fill="#fff"/>
        <path id="Tracciato_34743" data-name="Tracciato 34743" d="M195.393,241.527l-.784-.431a6.357,6.357,0,0,1-.541-.674,15.854,15.854,0,0,0-1.483-1.189l-1.62-1.079a.642.642,0,0,0-.332.147l.251.309,1.215,1.351,2.024,2.779.778.181.355-.423Z" transform="translate(-143.998 -179.895)" fill="#fff"/>
        <path id="Tracciato_34744" data-name="Tracciato 34744" d="M278.418,48.508l.732-.609-1.419-.486s-.541-.262-.609-.123c-.275.577,1.3,1.218,1.3,1.218" transform="translate(-209.305 -35.691)" fill="#fff"/>
        <path id="Tracciato_34745" data-name="Tracciato 34745" d="M264.6,45.491l.324-1.176a13.171,13.171,0,0,1-1.9-.525s-.007,0-.01-.006c-.4-.217-1,.431-1,.431l.405,1.642Z" transform="translate(-197.912 -33.039)" fill="#fff"/>
        <path id="Tracciato_34746" data-name="Tracciato 34746" d="M267.438,57.205c-.071-.049-.2-.075-.24-.02a1.06,1.06,0,0,1-.389.615c-.052.042-.113.091-.1.156s.058.087.1.113a1.955,1.955,0,0,0,1.334.376.771.771,0,0,0-.126-.732,2.241,2.241,0,0,0-.58-.509" transform="translate(-201.46 -43.173)" fill="#fff"/>
        <path id="Tracciato_34747" data-name="Tracciato 34747" d="M200.335,19.691l-.525-2.067-.849.162a9.724,9.724,0,0,0-1.014,2.753Z" transform="translate(-149.523 -13.313)" fill="#fff"/>
        <path id="Tracciato_34748" data-name="Tracciato 34748" d="M189.19,12.942a7.513,7.513,0,0,0,1.983.444c.285-.12.324-1.5.324-1.5l-.609-1.377-1.739.366a8.206,8.206,0,0,0,.042,2.063" transform="translate(-142.829 -7.941)" fill="#fff"/>
        <path id="Tracciato_34749" data-name="Tracciato 34749" d="M187.434,2.571l1.092-1.134S188,.048,187.8.006a6.521,6.521,0,0,0-1.079.11c-.771,1.053-.58,1.688-.58,1.688Z" transform="translate(-140.587 0)" fill="#fff"/>
        <path id="Tracciato_34750" data-name="Tracciato 34750" d="M117.636,46.435c.269.055.295.648.431.891.114.207.939.2,1.4.11a.15.15,0,0,0,.1-.23c-.172-.252-.638-1.04-.638-1.04l.593-2.672,3.265-3.508,1.568-1.892s-1.134.191-1.215.353a10.139,10.139,0,0,1-1.756.729s-2.105,1.59-2.105,1.888-2,4.428-2,4.428.081.891.353.943" transform="translate(-88.592 -28.775)" fill="#fff"/>
        <path id="Tracciato_34751" data-name="Tracciato 34751" d="M85.271,46.781a3.841,3.841,0,0,0-.849-.12s-.149.343-.34.343S84,46.382,84,46.194s-1.185-.891-1.185-.891l-3.158-1.889-1.117-.138s-1.429.308-1.555.326c-.191.026-.567.431-.839.269a8.3,8.3,0,0,0-1.97-.052l-.534-.138L73.5,42.55l-1.973-.46-.734.062-.75-.438-.972-1.189L66.16,39.9,65.5,40l-.31,1.171-2.672-.055-.421-.2-.227.982-.167.346-.993-1.1.081-1.189.049-.307-1.264-.882-1-.2-.083.661-1.863-.486-2.672-.512s-1.266-.055-1.428-.272,1.808-2.131,1.808-2.131l-.729-2.348s-1.645-.026-1.7-.324-.891-.431-1.134-.405.3-.4.46-.593-1.082-.46-1.082-.46L49.29,33.05l-.648.917-1,.567-1.538.3-1.3.457L43,36.72l.162,1.4L40.6,38.8l.7,1.7s.055.567-.217.567-.81-.677-1.024-.81-1.675.862-1.675.862l-.3,2.97-.06.58s-.366.042-.533.042c-.269,0-.055-2.323-.055-2.323l-.081-1.675L37.165,39.7l-.7-.306-.755.972L34.846,42.5l.758,1.943.221.527s-.276.283-.383.283c-.162,0-1.027-.943-1.027-.943l-1.808-.865s-.839.026-.567.162c.152.077.309.562.309.562l-.257.435-1.429.272-1.214-.081-2.3,1.347s-.512.758-.836.6a.284.284,0,0,1-.12-.11c-.054-.093.085-.382.085-.382l.277-.373a4.63,4.63,0,0,0-.567-.891c-.162-.107-.46.431-.541.946a1.918,1.918,0,0,0,.091.813,1.977,1.977,0,0,1,.107.489c0,.3-.648.039-.648.039s-1.014.69-1.257.891.224.69.224.69l-1.134-.081s-.486.039-.324.3.4.4.466.606-.2.2-.424.182a1.3,1.3,0,0,1-.771-.667,9.186,9.186,0,0,1-.142-1.338c-.02-.3-.81-.887-.81-.887s-.142-.285-.019-.224,1.581.748,1.581.748l1.6-.162.285-1.053-1.581-1.438-1.519-.687a8.447,8.447,0,0,1-1.163-.46l.01.2h-.181l-.162-.1v.266l-.3.139-.1.3-.175.092a1.505,1.505,0,0,1,.077-.313,1.4,1.4,0,0,0,.045-.612l-.295-.11-.11-.35-.431.217L18.2,43.39a1.626,1.626,0,0,0-.3.891.315.315,0,0,1-.269.4l-.162.379-.434-.324a2.6,2.6,0,0,1-.567.081c-.107-.026-.295-.648-.295-.648l-.272.188-.165.078-.13.058s-.136.055-.081.136-.081.567-.081.567l-.784-.3.055.324c.052.324-.162.35-.353.324s-.324.379-.405.4c-.016.007-.029.033-.039.068a1.731,1.731,0,0,0,.039.58c.055.217-.35.567-.35.567l-.026.324-.434.162.029.891-.3.486.162.729-.541-.055-.295.434s-.11,1.619.133,1.833a.222.222,0,0,1,0,.379s-.133-.081-.026.188-.026.839-.217.92l-.133.674-.084.023a2.077,2.077,0,0,0,.068.382,6.9,6.9,0,0,1,.528,1.4,4.287,4.287,0,0,0,.11.515c.078.25.191.418.4.418.324,0,.366-.386.81-.547s.366-1.092.366-1.4.3-.648.729-.871.12-.952-.1-1.153a1,1,0,0,1-.447-.852,3.506,3.506,0,0,1,1.033-1.762,2.058,2.058,0,0,0,.687-1.192,3.025,3.025,0,0,1,.486-1.114c.126-.162.343-.12.58,0a3.757,3.757,0,0,1,.554.363c.4.3-.12.671-.343.871s-.852,1.053-1.176,1.318-.139.544-.058.849a9.231,9.231,0,0,1,.058,1.357c.023.424.467.625.752.768s.706-.343,1.4-.567a1.85,1.85,0,0,1,.392-.087l0,0a.441.441,0,0,1,.475.188c.058.084.4.123.505.224s-.182.1-.363.1c-.14,0-.253.233-.486.327l.078.159-.076-.155a.53.53,0,0,1-.266.039,4.978,4.978,0,0,0-1.3.061c-.243.058-.344.324-.3.628s.366.3.386.424a.483.483,0,0,1,0,.12c-.006.217-.062.619-.162.648-.12.042-.243-.039-.424-.282a.381.381,0,0,0-.586.02,1.687,1.687,0,0,0-.269,1.007c0,.046,0,.094.006.146.013.2.029.334.042.421.029.188.033.171-.1.188a.243.243,0,0,1-.117.045c-.052,0-.23.055-.243.178a.317.317,0,0,1-.081.211.531.531,0,0,1-.256.126c-.311.081-.256-.217-.3-.324s-.256-.068-.444-.029a5.353,5.353,0,0,0-.9.515.464.464,0,0,1-.4.033.924.924,0,0,1-.2-.1.238.238,0,0,1-.107-.311s-.69.35-.878.431-.052-.324-.052-.324a1.126,1.126,0,0,1-.3.042c-.114,0-.2-.191-.247-.33a.649.649,0,0,1-.026-.13c0-.068-.065-.295-.013-.295s.1.107.149.24.285.016.311-.094a.137.137,0,0,0,0-.071c-.023-.094-.12-.185-.171-.185-.068,0-.2.081-.2.013s.243-.2.3-.311a2.04,2.04,0,0,0,.11-.324,1.954,1.954,0,0,1-.272-.253c-.062-.058.1-.667.1-.667l-.719.366a.87.87,0,0,0-.292.382,2.521,2.521,0,0,0,0,.7,1.455,1.455,0,0,1,.21.334,2.161,2.161,0,0,1,.039.259,5.567,5.567,0,0,1-.016.713,4.091,4.091,0,0,1-.609.246l-.11.026a2.631,2.631,0,0,0-.59.143c-.1.081,0,.243.013.343s.009.184-.1.184-.091-.285-.149-.324-.114.12-.143.233a4.207,4.207,0,0,1-.486.8.447.447,0,0,1-.071.065,1.657,1.657,0,0,1-.321.168c-.113.045-.224.084-.288.12-.149.081-.1.434-.262.547s-.444.415-.577.486-.515-.233-.515-.233a2.6,2.6,0,0,0-.013.5c.032.081-.1.191-.262.181s-.972-.039-.972-.039l-.039.535a4.938,4.938,0,0,1,.739.182,1.605,1.605,0,0,1,.729,1.176,1.3,1.3,0,0,1-.408,1.2.258.258,0,0,1-.13.071c-.162.01-1.963-.123-1.963-.123l-.862.314a1.016,1.016,0,0,0,.123.324.634.634,0,0,1,.052.262c.013.185.016.415.039.538a2.737,2.737,0,0,1-.333,1.011c-.091.152.171.81.171.81L3.564,68s.424-.057.522-.05a3.264,3.264,0,0,1,.045-.476c-.016.026-.045.476-.045.476l.5.288.237.249.227-.016.871-.262.972-.557.256-.478L7.083,66.8l.359-.65.615-.353.467-.353a1.174,1.174,0,0,0,.058-.343,3.358,3.358,0,0,1,.055-.437l.192-.136.91.217.223-.029s.28-.266.376-.376c0,0,.006-.006.01-.006l.519-.2.41.071.518.79.055.068.975.752.09.07a.325.325,0,0,0,.114.03l.5.433a3.387,3.387,0,0,1,.326.41.659.659,0,0,1-.091.557.382.382,0,0,0-.047.145s.031.124.057.127a1.683,1.683,0,0,0,.176-.091,1.665,1.665,0,0,0,.216-.275c.066-.135.158-.368.158-.368a2.488,2.488,0,0,0-.116-.238c-.11-.181.114-.386.114-.386l.424.347.146-.217a.473.473,0,0,0,0-.058,6.4,6.4,0,0,0-.972-.638l-.123-.23a1.969,1.969,0,0,1-.382-.071,8.864,8.864,0,0,1-.871-1.014l-.224-.586.327-.553s.15,0,.179.005c.049,0,.039.065.032.139a1.018,1.018,0,0,0-.01.1l.243.214.123-.146.178.194.256.528a2.359,2.359,0,0,1,.726.525c.006.006.013.016.023.019a1.729,1.729,0,0,0,.45.2.648.648,0,0,1,.34.3,1.025,1.025,0,0,1,.081.522c-.01.168-.016.356-.01.534,0,.094.007.182.016.266a2.282,2.282,0,0,0,.071.34l.153.092.294-.037.23.3.188.081-.243.094a4.536,4.536,0,0,0,.23.512c.12.217.567.324.567.324l.013-.379s.123-.214.042-.295-.055-.136.039-.081.23.081.486-.055a.221.221,0,0,0,.092-.1s-.212-.212-.293-.276a1.791,1.791,0,0,1-.486-.7c-.123-.324.094-.136.269-.123a.383.383,0,0,0,.18-.048s.044-.09.008-.139c-.065-.094.3-.136.609-.107a.411.411,0,0,1,.21.071.729.729,0,0,1,.169.31l-.03.642.216.354.163.463.839.507.513.007.456-.084.373.164.253.153a3.115,3.115,0,0,0,.481-.22.637.637,0,0,1,.805.025.146.146,0,0,1,.048.1,1.751,1.751,0,0,1-.133.716c-.087.266-.2.541-.275.742a2.068,2.068,0,0,0-.087.246c-.013.048-.026.1-.046.155a.867.867,0,0,1-.288.447c.069.3.157.7.175.851-.026-.188-.175-.851-.175-.851l-.476.046-.685-.046-.772.23a7.389,7.389,0,0,1-1.717-.434c-.292-.113-.612-.249-.956-.4a3.82,3.82,0,0,0-1.142-.233l-.092.823c-.036.5-.1.545-.251.5-.262-.062-.814-.27-.882-.28-.044-.007-.5-.133-.5-.133a3.294,3.294,0,0,1-.295-.411,12.9,12.9,0,0,0-1.633-.547.261.261,0,0,1-.048-.02l-.162-1.276-.112-.748h-.351c-.078,0-.243.01-.467.029-.547.046-2.287.275-2.287.275s-1.781.612-2.39.748a1.5,1.5,0,0,1-.282.039,1.913,1.913,0,0,1-1-.311.482.482,0,0,0-.138-.033s-.123.43-.123.43l-.194.427-.23.158-.648.484s-.355,1.118-.385,1.4-.811.745-1.245,1.052H1.907a.836.836,0,0,0-.243.224c-.123.243-1.176,1.72-1.38,2.083a1.073,1.073,0,0,0-.129.312l0,.007,0,.031a.773.773,0,0,0-.008.113,1.035,1.035,0,0,0,0,.147,3.613,3.613,0,0,0,.077.355l.012.05c.075.3.17.625.17.625a4.976,4.976,0,0,1,.022,1.052c-.006.019-.011.038-.017.056A3.454,3.454,0,0,1,0,78.347s0,.009,0,.013,0,.005,0,.007a1.871,1.871,0,0,0,.078.415,1.879,1.879,0,0,0,.12.33c.033.081.123.24.123.24l.246.317.263.217s.075.049.107.075a3.693,3.693,0,0,1,.383.35,3.759,3.759,0,0,1,.282.476c.048.126.1.314.1.314a5.54,5.54,0,0,0,.642.687c.239.209.8.607.8.607a3.454,3.454,0,0,0,.895.355.484.484,0,0,0,.291-.071,3.312,3.312,0,0,1,.882-.238s.569-.013.812,0c.356.026.616.071.616.071a5.047,5.047,0,0,1,.991-.373,2.018,2.018,0,0,1,.227-.052,2.57,2.57,0,0,1,.418-.058l.006-.785-.005.786a2.969,2.969,0,0,1,.956.119l.372.559.619.051a2.48,2.48,0,0,1,.4-.005l.175-.267V82.14s.5-.5.634-.486a.22.22,0,0,1,.053.012.21.21,0,0,0-.051-.012c-.137-.013-.635.486-.635.486v.35l-.175.269a.744.744,0,0,1,.632.842,2.017,2.017,0,0,1-.065.524,1.083,1.083,0,0,1-.032.133,3.619,3.619,0,0,1-.262.727l.14.306s.56.7.764,1c.1.146.184.285.259.421.055.094.107.188.152.282.026.049.052.1.074.149a11.08,11.08,0,0,1,.47,1.428l.047.757-.672,2.181a2.886,2.886,0,0,0-.026.363,3.707,3.707,0,0,0,.247.922l.812,1.245a7.188,7.188,0,0,0,.424,2.368c.094.149.224.356.356.6a9.9,9.9,0,0,1,.494,1,8.187,8.187,0,0,1,.345,1.322l.715.592,2.239-.229,1.372-.752s1.2-1.593,1.481-1.94a1.271,1.271,0,0,0,.357-.826,4.2,4.2,0,0,1,.065-.637l.431-.219.361-.576-.153-1.406-.013-.162,2.378-2.144a9.016,9.016,0,0,0-.143-2.028,8.752,8.752,0,0,1-.324-2.416.531.531,0,0,1,0-.071,2.888,2.888,0,0,1,.855-1.27c.8-.865,2.459-2.261,2.459-2.261l1.584-3.071-.117-.32s-.742.267-1.341.463c-.774.256-1.393.214-1.807-.36a1.607,1.607,0,0,1-.136-.227A.592.592,0,0,0,25,79.387a2.091,2.091,0,0,0-.12-.2c-.408-.59-.975-.862-1.3-1.325a6.654,6.654,0,0,1-.47-.8,5.881,5.881,0,0,1-.483-1.286,3.884,3.884,0,0,0-.172-.522,14.146,14.146,0,0,0-1-1.827,8.56,8.56,0,0,1-.771-1.334c-.262-.628.246-.062.346.162.084.185.227.243.522.23.058,0,.188-.01.188-.01l.182.1,1.619,2.974s.969,1.51,1.27,2.144a7.166,7.166,0,0,1,.33,1.117l.266.4.608.029,2.586-1.059s.483-.243.729-.4a18.352,18.352,0,0,0,2.29-2.07l.375-.9-.517-.256-.5-.228a2.591,2.591,0,0,1-.306-.458,1.971,1.971,0,0,0-.1-.22.179.179,0,0,0-.188-.084l-.556.452-.74.277a1.609,1.609,0,0,1-.437-.094,3.182,3.182,0,0,1-.959-1.257c-.152-.262-.33-.5-.441-.706a1.973,1.973,0,0,1-.13-.4.721.721,0,0,1,.189-.217l.029-.019a1.127,1.127,0,0,1,.233-.107.915.915,0,0,1,.305-.024l.322.286.14.509,1.033.748,1.328.295.11.13,1.917.356c.266,0,.732-.032.732-.032l.965-.083.564.212a2.566,2.566,0,0,1,.386.561l.01.019a3.636,3.636,0,0,0,.827,1.142,3.529,3.529,0,0,0,.774.054c.243-.081.3-.385.3-.2s.3,2.245.3,2.245l1.662,3.463,1.092-1.033.061-1.681s.729-.726,1.377-1.4a8.86,8.86,0,0,1,2.358-1.649c.188-.088.557-.233.557-.233l.533-.1.2.1a.876.876,0,0,1,.056.267.851.851,0,0,1-.042.191l.836,1.092.116.4.021.583.287.125.6-.342.212-.143.19.846.165.55s.143.518.17.738a3.345,3.345,0,0,1,0,.775c-.021.215-.046.507-.046.507l.118.228.207.2a4.407,4.407,0,0,1,.282.653l.22-.045h0l-.221.046.119.826.068.259.624.609.869.528a.6.6,0,0,0,.086.038c.084.027.119-.016.119-.1a1.539,1.539,0,0,0-.062-.252l-.267-.5-.127-.305.028-.387-.041-.241-.206-.259s-.13-.1-.207-.157l-.141.163.141-.165c-.094-.067-.305-.222-.305-.222l-.495-.452-.321-.645.055-.732L48.7,79.3l.422-.208a1.683,1.683,0,0,1,.6.295,2.975,2.975,0,0,1,.612.82c.215.394.376.7.376.7l1.043-.6.573-.551.188-.908a7.681,7.681,0,0,0-.514-1.029c-.068-.1-.136-.2-.207-.3a7.864,7.864,0,0,1-.67-1.1l.346-.438.56-.421-.175-.207-.424-.3v0l.422.3.175.207c.143-.019.33-.035.6-.055l.094.211.2.2.123-.282.032-.168a12.491,12.491,0,0,0,1.6-.411l2.3-1.792.858-1.744-.716-1.858-.219-.848.725-.571.242-.394-.638-.15-.677.058-.4-.191.93-1.224.564-.175-.1.861.029.032,1.1-.509.042-.01.2.007.152.25-.07.472.006.205.137.132.564.191.128.133-.122.81-.168.6.034.183.979-.449.4-.26.105-.518-.307-.718s-.152-.262-.223-.392a.8.8,0,0,1-.078-.884,5.522,5.522,0,0,1,.933-1.043l.764-.311.225.091,1.66-1.41,1.41-2.735.391-2.587-.248-.5-1.514-.066-.467-.252,1.458-2.055,1.7-1.462,1.883-.118,2.468.162.323-.137-.019-.693,1.863-1.438.363,1.075.671-.69.949-1.153.312.08-.25.75a13.424,13.424,0,0,1-1,1.218c-.133.133-.256.262-.36.382-.176.213-.555.648-.958,1.12-.516.605-1.287,1.614-1.287,1.614l.029,2.059.5,1.848,1.318-1.74.2-.582.364-.208.2-.648.155-.334.412-.233L74.562,55a2.061,2.061,0,0,1,.164-.908,3.9,3.9,0,0,1,.38-.611,1.061,1.061,0,0,1,.11-.123.772.772,0,0,1,.418-.116l.505.219.936-.818.3.189.435.4a.676.676,0,0,0,.174-.322c.019-.3,2.368-1.681,2.63-1.8s.832.2,1.014.062-.042-.69-.224-.894-.12-.4-.3-.625-.382-.285-.525-.509.2-.162.386-.039c.077.052.371-.024.371-.024l.62-.4s0-.79.042-1.014.382,0,.343.123.606.525.606.525l.452.157a1.594,1.594,0,0,1,.219.41c.019.224,1.072.628,1.192.671s.344-.972.467-1.156.506-.223.486-.3.142-.143.3-.408c0,0-.729-.81-.79-.91M20.664,93.691h0l-.039-.388ZM13.606,77.537l.081-1.253.081-.347-.067-.051.068.051-.081.348-.081,1.252-.3.339ZM21.48,89.522c-.03.011-.044.053-.047.111,0-.058.017-.1.047-.111.046-.016.132-.054.228-.091-.1.037-.182.075-.228.091m-.6,2.357c0-.027.006-.054.007-.081,0,.027,0,.054-.007.081m-.136-.345a2.391,2.391,0,0,0-.384-.128,2.391,2.391,0,0,1,.384.128M12.484,80.615h0l-.007.162ZM13,79.14s0-.011-.005-.015,0,.011.005.015m.4,1.76c-.079-.08-.207-.174-.3-.27.093.1.221.189.3.27m2.851-.627-.029-.2h0Zm.283-.967-.007.225.006-.225Zm-.012.432h0l.2.08-.036.131.035-.13Zm-.029-1.121-.027-.094,0,0,0,0Zm-.189.229.072.079-.072-.079Zm.1.168-.194.278h0Zm-.153,1.263h0l-.3.233Zm-1.14.7a.95.95,0,0,0-.061-.153.925.925,0,0,1,.061.153m.007.034h0a3.757,3.757,0,0,1-.75.37,3.8,3.8,0,0,0,.75-.37m1.576-.942-.013-.023.014.023Zm-3.073,1.351a.5.5,0,0,0-.046-.162.525.525,0,0,1,.047.161l.133.015Zm.064-1.005a1.693,1.693,0,0,1-.112-.157,1.581,1.581,0,0,0,.114.157ZM12.848,78.9h0l-.023-.142Zm.041,1.042c.043-.016.337-.04.337-.148a.765.765,0,0,0-.111-.319.746.746,0,0,1,.112.319c0,.107-.295.133-.337.149a.623.623,0,0,0-.1.2.653.653,0,0,1,.1-.2m-.229.555a.208.208,0,0,1-.011.03.157.157,0,0,0,.01-.029c0-.015.01-.034.016-.053-.006.018-.011.037-.015.052M17.033,78l.11.012v0Zm-4.25.877a.163.163,0,0,1,.062.022.157.157,0,0,0-.062-.021c-.082-.016-.176.058-.26.128.084-.07.177-.145.26-.129M11.594,79c.009,0,.02,0,.029,0h-.029m.867,1.935-.178.077s-.016.037-.038.091c.023-.055.038-.092.038-.092Zm8.432,12.1-.081-.444ZM13.615,74.711c-.059.025-.119.054-.178.083h0c.058-.029.118-.057.178-.082M8.7,79.476c0-.057.011-.108.016-.144-.005.037-.012.088-.016.144m-.218,1.247a.432.432,0,0,0-.191.08h0a.431.431,0,0,1,.191-.081c.061,0,.121-.144.182-.266-.061.123-.121.267-.182.267m.182-.268h0m.091-.2a1.445,1.445,0,0,0-.043-.516,1.4,1.4,0,0,1,.043.516M10.5,79.009a.687.687,0,0,1-.648-.081,1.225,1.225,0,0,0-.7-.094l-.236.242.235-.242a1.228,1.228,0,0,1,.7.094.685.685,0,0,0,.648.081c.077-.04.179.04.284.114-.106-.073-.207-.152-.284-.113m.858.072a.727.727,0,0,1,.208-.08.727.727,0,0,0-.208.08m9.987,12.114a.036.036,0,0,0,.014.029.036.036,0,0,1-.014-.029m.785-.256a1.155,1.155,0,0,0,.011-.187,1.155,1.155,0,0,1-.011.187m.625-1.459a2.4,2.4,0,0,1-.609-.12,2.4,2.4,0,0,0,.609.12l.2-.181Zm26.36-7.246L49.1,82.1l.016.132Zm.344-.12h0l-.319.11Zm-.385-.223-.181-.046.18.046ZM49,75.39l-.269-.019-.162-.143v0l.161.142.269.019.156-.139v0Zm-2.6-3.5-.3.184-.505.324-.142.343-.01.081-.211-.143v0l.21.143.01-.081.142-.343.505-.324.3-.185h.385l.3.023.347.4.152-.045.11-.033.3.463h.12v0H48l-.3-.463-.11.033-.152.045-.346-.4-.3-.022Zm1.741,2.387v0l-.466-.061v0Zm.325.627-.245-.323v0l.245.322Zm-3.706-2.509.324-.022v0l-.324.023-.123-.061h-.22l-.382.415,0,0,.382-.414h.22Zm-6.378-4.719-.18-.321-.486-.2v0l.485.2.182.324Zm.1-1.535.019.139h0l-.019-.139Zm4.9-5.131h0c-.122-.055-.261-.135-.261-.173h0c0,.04.143.118.264.172m-.713-.156c.224.143.467-.2.467-.2v.007c-.015.02-.247.339-.464.2a.944.944,0,0,1-.324-.366l-.285-.2v0l.284.2a.946.946,0,0,0,.324.366m-1.334-.79a.621.621,0,0,1,.382-.12.315.315,0,0,1,.31.23.313.313,0,0,0-.308-.226.617.617,0,0,0-.382.12l-.3-.02-.162-.081v0l.161.081Zm-.994,0a5.163,5.163,0,0,0,.324-.4c.031-.051.083.027.126.117-.043-.088-.094-.164-.125-.114-.062.1-.324.405-.324.405s-.709-1.477-.768-1.539l-.628-.586v0l.628.586c.058.061.768,1.538.768,1.538m-1.519-2.429c.214-.115.283-.125.286-.094-.009-.025-.08-.012-.284.1-.486.262-.849.447-.849.447l-.324.182v0l.324-.181s.363-.185.849-.447m-1.782.023.224.22.586-.039,0,0-.581.039-.224-.22s-.283.219-.362.145c.082.068.36-.148.36-.148m-.405-.418a.053.053,0,0,0-.017-.025.052.052,0,0,1-.019-.024.05.05,0,0,0,.017.021.055.055,0,0,1,.019.029m-4.088.58.262.058.265.02.544-.22.628-.1.039-.24,1.156-.185.1-.139.2-.224a.917.917,0,0,0,.408.224c.22.039.3-.062.382-.062.02,0,.032.014.038.036-.007-.02-.017-.033-.036-.033-.081,0-.162.1-.382.061a.915.915,0,0,1-.408-.224l-.2.224-.1.139-1.156.184-.039.24-.628.1-.544.22-.266-.019-.262-.058-.161.28h0Zm0,.544.1-.141h0l-.1.141Zm-.324.771c.181-.123.224-.162.2-.266a1.128,1.128,0,0,1,.039-.343l.479.042.008,0-.486-.042a1.129,1.129,0,0,0-.039.343c.019.1-.023.142-.2.265a.184.184,0,0,0-.094.238.183.183,0,0,1,.092-.241m-3.683.486c.078-.042.343-.2.343-.2l.1.162h.324l.262.262.224.385.061-.324.466.366a1.539,1.539,0,0,1,.162-.223.942.942,0,0,1,.324-.2l.22.184.1-.184s.24-.039.282.042a2.752,2.752,0,0,0,.467.343L32.025,60a1.3,1.3,0,0,0,.528.142c.2,0,.166-.226.08-.4.087.173.119.4-.079.4A1.3,1.3,0,0,1,32.027,60l-.139.224a2.765,2.765,0,0,1-.467-.343c-.042-.081-.282-.042-.282-.042l-.1.185-.22-.185a.945.945,0,0,0-.324.2,1.526,1.526,0,0,0-.162.224l-.467-.366-.061.324-.224-.386-.262-.262h-.324l-.1-.162s-.266.162-.343.2c-.032.015-.052,0-.065-.03.012.025.032.041.063.027m-1.9.991.285-.324a2.239,2.239,0,0,0,.444.363c.1.023-.042-.486-.042-.486l.324-.1.023-.2.567-.4.22.02v0l-.218-.019-.567.405-.023.2-.324.1s.143.509.042.486a2.24,2.24,0,0,1-.444-.363l-.285.324.019.505-.18.444h0l.181-.447Zm.567,1.983.281-.039,0,0-.279.038Zm-.486-.988h0l-.019.363h0Zm-.886,4.213.26.122h0l-.258-.121Zm.422,1.035-.032-.016-.019-.078.019.077Zm-.1-.611,0,0Zm.151.635h0v.189s.007.005.012.007-.01,0-.012-.006Zm.056.206a.239.239,0,0,0,.109,0h0a.243.243,0,0,1-.109,0m.08-.457h0l.028.443Zm.059-.867-.121-.123-.006-.125.007.125.12.123Zm-.039.08-.019.039h0Zm-.265-.1-.281-.062h0l.281.062.112.065Zm-2.381-4.466-.239-.108h0l.237.107Zm-.023.37c-.036-.081-.2-.164-.2-.164h0c.016.008.163.088.195.165m-.836-1.029a1.244,1.244,0,0,1,.162-.1l.275.223a.911.911,0,0,0,.253.1c.064,0,.2.008.22.038a.5.5,0,0,0-.219-.035.908.908,0,0,1-.253-.1l-.275-.223a1.307,1.307,0,0,0-.162.1c-.068.054-.211-.242-.245-.317.036.079.176.367.243.313m-.839-.386s.191.194.275.194a1.184,1.184,0,0,0,.311-.143v0a1.181,1.181,0,0,1-.311.142c-.084,0-.275-.194-.275-.194l-.152.142v0Zm-.262-.268-.079.01v0l.079-.01Zm-.071-.237v0l-.422.029v0Zm-.619-.739.114.162.22.295h0l-.218-.291-.113-.162-.2.091-.123.071v0l.122-.071Zm-.342.084-.222-.032,0,.184-.275.007v0l.273-.006,0-.185.224.033Zm-2.214-3.253.221-.061v0l-.222.061Zm.059-.383-.121-.121h0l.121.121Zm1.554,3.484v0h.105v0Zm-.255-1.635.16.092v0l-.161-.093Zm.075-.2-.131-.131h0l.13.13Zm.771,1.187h0l-.146-.118v0Zm-.149-.252-.267.068v0L20.662,58Zm-.243-.256-.2-.016v0l.2.016Zm-.866-9.065-.1-.079v0l.1.08Zm.1.28v0H19.5v0Zm.569,1.567a2.007,2.007,0,0,0-.586-.572v0a1.969,1.969,0,0,1,.586.574m-.368-.877h0l-.179-.2v0ZM19.5,45.728a.271.271,0,0,1,.048.075.282.282,0,0,0-.046-.071,1.485,1.485,0,0,0-.467-.3v0a1.466,1.466,0,0,1,.465.3m.262,10.738.107.149.149.052v0l-.148-.051-.107-.149-.217.133-.133.068v0l.131-.067Zm-.366-.029v0l-.254.029-.262-.146v0l.261.145Zm1.65,8.954a4.736,4.736,0,0,0-.716.4c-.243.188-.771.026-1.04-.026a1.488,1.488,0,0,1-.379-.324c-.01-.016-.02-.032-.026-.045h0c-.088-.136-.123-.237-.036-.59a1.647,1.647,0,0,1,.162-.421.859.859,0,0,0,.12-.295c.026-.2.3-.243.392-.486.016-.042.033-.078.046-.107a2.816,2.816,0,0,1,.171-.3,1.229,1.229,0,0,1,.648-.525c.3-.084.162.214.2.295.032.062.292.045.466.058l.006,0a.382.382,0,0,1,.119.022c.136.055-.363.188-.389.23s.389.512.389.512l.421.042.635-.2.051-.23-.5-.065s-.152-.1-.171-.2h0a.339.339,0,0,1,.01-.2c.055-.149.46-.243.729-.34a5.881,5.881,0,0,1,.681-.214v0a1.556,1.556,0,0,1,.331-.042c.324,0,0,.162-.068.2a6.757,6.757,0,0,0-.473.674s-.055.6.12.635a6.115,6.115,0,0,1,.862.687l.146-.058.547.182.343-.02.486.3.12.12.243-.081.285-.039.1.078h0l-.1-.074-.283.038-.243.081-.122-.119-.486-.305-.343.019-.548-.181-.146.057c.125.094.251.192.383.273a.57.57,0,0,1,.192.842h.583l.319.238.005.005-.019.467.262.081.265.1.018.009-.018-.008-.265-.1-.263-.081.02-.467-.324-.243h-.583a.938.938,0,0,1-.1.13,9.335,9.335,0,0,1-1.743-.026Zm8.38,2.808-1.539-.4s-.34-.295-.333-.486c.007-.143.058-.327.1-.6a1.526,1.526,0,0,0-.3-1.224l-.3.288-.262-.081-.182-.224-.235-.077h0l-.129-.046v0l.128.045.237.078.181.223.262.081.3-.288a.7.7,0,0,0-.113-.123c-.243-.217-.282-.9-.282-.9l-.2-.7s.609-.622.92-.865l.005-.005,0,0a1.481,1.481,0,0,1,1.357-.292.8.8,0,0,1,.188.324.574.574,0,0,1-.162.392,1.233,1.233,0,0,1-.512.123c-.162.026-.084.4-.259.35s-.2.068-.12.175.23.622.35.664.447.269.46.363c.01.068-.023.35.071.434.039.036.1.039.185-.016.311-.188.46.162.567.4s-.068.285-.486.23-.282.256-.188.379a3.468,3.468,0,0,1,.4.81,1.549,1.549,0,0,1,.074.635.784.784,0,0,1-.184.337m9.853.612-.343-.243L38.6,68.2l-.337-.175v0l.334.174.33.369.343.243h.285l.343.586h0l-.342-.584Zm.91,2.268-.4-.547h0l.4.544.424.224.266-.013.162-.007.324.22.505.447.262-.081.162.162.648.243.509.285.24-.1.023.006.224.055v0l-.223-.055-.023-.006-.24.1-.509-.285-.648-.243-.162-.162-.262.081-.505-.447-.324-.22-.162.006-.266.013Zm10.67,3.5-.528.347-.3-.1-.123.24-.324-.12-.016.11,0,.033-.262-.081.081.324.062.2-.285-.058v0l.283.058-.062-.2L49.3,75l.262.081,0-.033.016-.11.324.12.123-.24.3.1.528-.346.262.2.366.12v0l-.363-.119Z" transform="translate(-0.001 -23.944)" fill="#fff"/>
      </g>
    </g>
  </g>
</svg>
