<svg xmlns="http://www.w3.org/2000/svg" xmlns:xlink="http://www.w3.org/1999/xlink" width="64" height="64" viewBox="0 0 64 64">
  <defs>
    <clipPath id="clip-path">
      <circle id="Ellisse_954" data-name="Ellisse 954" cx="32" cy="32" r="32" transform="translate(0 0.211)" fill="#fff"/>
    </clipPath>
  </defs>
  <g id="Gruppo_di_maschere_184" data-name="Gruppo di maschere 184" transform="translate(0 -0.211)" clip-path="url(#clip-path)">
    <path id="Tracciato_34761" data-name="Tracciato 34761" d="M34.921,0A34.921,34.921,0,1,1,0,34.921,34.921,34.921,0,0,1,34.921,0Z" transform="translate(-1.838 -1.844)" fill="#87979F"/>
    <g id="Raggruppa_18469" data-name="Raggruppa 18469" transform="translate(-6.225 -0.291)">
      <g id="Raggruppa_18468" data-name="Raggruppa 18468" transform="translate(0 0)">
        <path id="Unione_39" data-name="Unione 39" d="M1.207,64.813l4.7-4.45,1.678.367L9.422,60l-.115-2.038s2.1-.8,2.279-.955a7.967,7.967,0,0,1,1.23-.521l1.805-2.338h.453l.364,1.055s1.471.9,1.589.977,1.023.307,1.023.307l3.487-.414,2.973.773,2.8.436,3.756.933H33.8l.389.4.933.314-.661,1.531L35.121,62l-1.593.511L36.3,64.666h1.167l3.1.918.447,1.168,5.022,2.5,1.5-1.316-.272-1.66,3.1-1.566,1.533.878L54.9,66.605l4.9.221,1.021-1.262,2.349-.752,1.287.279,2.138-1.384.95-4.692-.283-2.529.283-.858-.283-.187-.428.336H65.795l-.548.873-1.707.571-2.26-.734L61,57.344,60,57.6l-2.613-1.109-1.6-2.059.13-1.97h-.895l.623-1.839-1.049-.2-2.54.2.674,1-.8.408-1.168-.908-.174.5.715,1.543,1.511,1.517-.447.948s-.646-.4-.676-.4a8.861,8.861,0,0,0,.038.95l-.34,1.561-1.439-.635-1.049-1.328.113-.768.895-.084s1.02.367,1.037.379a3.839,3.839,0,0,0,.444-.445l-2.539-.145L46.6,51.481V48.939L43.83,47.045l-4.045-3.609.134-1.247-1.85.738V44.5l1.44,1.344.41,1.5L41.146,48.5l1.319.254-.511.486L44.1,50.418l1.255,1.246-.209.509L43.248,51l-.6,1.172.9,1.25-1.73,1.923-.158-.633.619-1.058L41.658,51.9l-5.945-5.091L35.3,44.639l-1.545-.624L31.622,45.4l-1.137.3-2.146-1.068-1.156.488-.629,1.918L24,47.99l-1.831,1.969v1.522l-1.358,1.506h-.814l-1.063.925-3.308-.426-.582.5-.382-.344L14.2,51.953l-2.17-.659.661-1.795-.407-.8,1.727-3.053.828-3.713,7.174,1.81L23.6,40.193l-.517-2.629L21.3,36.037v-.728l1.784-.215.426.586.963.145.226-1.545a3.787,3.787,0,0,1,.676.265,4.474,4.474,0,0,0,.608.362l.866-.362,1.6-.588.25-.868,1.492-.41.234-.776H30.4l.9-2.349,3.308-.778V25.6L36.893,23l.248,5.777,1.854-.861,1.049.648,5.852-1.049L46.6,23l1.826-3,3.526-1.3s-.063-1.049-.313-1.021-4.324,1.858-4.324,1.858L45,19.229l2.318-8.5H45.581l-2.994,7.239,1.574,1.823-2.131,5.6-4.39,2.129h-.4s.037-1.432.07-1.5c.028-.044,1.534-1.148,1.534-1.148L37.5,20.791l-3.352,1.668a10.31,10.31,0,0,1-1.332-1.472c0-.18.644-5.313.644-5.313l9.13-10.109,5.839-1.545L55.914,6.4l-.292,2.132-3.053.28,3.615,2.721,3.592-8.012L62.711,0H81.674l-.063,31.867-8.888.006V71.7l-3.008.205L67.76,69.114H67.1l.157-1.981-.934,2.854-2.137-3.063v1.324s1.59,1.984,1.609,2.071.527.992.527.992L0,72.117Z" fill="#fff"/>
        <path id="Tracciato_34764" data-name="Tracciato 34764" d="M-21042.02-20759.318l.148,1.254-.627,1.381-.562-.477v-1.279l.783-.527Z" transform="translate(21076.25 20805.506)" fill="#fff"/>
        <path id="Tracciato_34765" data-name="Tracciato 34765" d="M-21064.918-20699.988l.26.287,1.105-.52.521.945-.645,2.572-.586-.164-.217.451-.744-.223.4-2.482-.273-.154Z" transform="translate(21097.311 20749.365)" fill="#fff"/>
        <path id="Tracciato_34766" data-name="Tracciato 34766" d="M-21209.625-20679.551l.836.715.656-.645-.289-.492-1.27.422" transform="translate(21234.551 20730.133)" fill="#fff"/>
        <path id="Tracciato_34767" data-name="Tracciato 34767" d="M-20958.361-20589.68l-.742,1.258v1.443l-3.514-1.924.271-.777,1.947.318Z" transform="translate(20999.826 20644.35)" fill="#fff"/>
        <path id="Tracciato_34768" data-name="Tracciato 34768" d="M-20667.281-20499.617s1.842.523,1.869.523,1.771-.24,1.771-.24v-.441l-2.6-.135-.828-.252Z" transform="translate(20719.26 20559.311)" fill="#fff"/>
        <path id="Tracciato_34769" data-name="Tracciato 34769" d="M-20437.389-20533.6l-1.215.777h-.8a8.259,8.259,0,0,0-.627.756c-.012.064.627.5.627.5l1.5-.721-.18-.437Z" transform="translate(20503.369 20591.072)" fill="#fff"/>
      </g>
      <path id="Tracciato_34770" data-name="Tracciato 34770" d="M-20551.527-19474.965l-1.234,1.857,1.234.34-1.234,2.287,1.518,5.283.891.619-.891,2.441-6.834.377,2.2-1.678-.9-.928,1.3-2.342h1.262l-.182-1.982-1.08.283-.221-.283.836-1.541-1.145-.59,1.145-3.465,2.539-.68Z" transform="translate(20578.182 19494.412)" fill="#fff"/>
      <path id="Tracciato_34771" data-name="Tracciato 34771" d="M-20638.107-19364.693l.736.09.908.756-.105,1.318-1.3,2.887s-3.807.422-3.826.35-.164-1.131-.164-1.131l1.281-1.691v-1.135l.676-.6h1.006Z" transform="translate(20658.648 19388.502)" fill="#fff"/>
    </g>
    <circle id="Ellisse_953" data-name="Ellisse 953" cx="32" cy="32" r="32" transform="translate(0 0.211)" fill="none" stroke="#87979F" stroke-width="2"/>
  </g>
</svg>
