<svg xmlns="http://www.w3.org/2000/svg" xmlns:xlink="http://www.w3.org/1999/xlink" width="66.934" height="65.021" viewBox="0 0 66.934 65.021">
  <defs>
    <clipPath id="clip-path">
      <path id="Tracciato_34760" data-name="Tracciato 34760" d="M33.467,0A35.122,35.122,0,0,1,45.145,2.034,32.4,32.4,0,0,1,66.934,32.511c0,17.955-14.984,32.511-33.467,32.511S0,50.466,0,32.511,14.984,0,33.467,0Z" transform="translate(0 0)" fill="#1e85d9"/>
    </clipPath>
  </defs>
  <g id="Gruppo_di_maschere_183" data-name="Gruppo di maschere 183" clip-path="url(#clip-path)">
    <path id="Tracciato_34752" data-name="Tracciato 34752" d="M33.168,0C51.486,0,66.336,14.413,66.336,32.193S51.486,64.385,33.168,64.385,0,49.972,0,32.193,14.85,0,33.168,0Z" transform="translate(0.598 0.002)" fill="#1e85d9"/>
    <g id="Raggruppa_18467" data-name="Raggruppa 18467" transform="translate(-23.043 -5.95)">
      <path id="Tracciato_34753" data-name="Tracciato 34753" d="M-21484.584-21014.08v-2.689l3.215-3.463,4.527-1.676,1.1-3.381,2.035-.861,3.793,1.879,1.99-.529,3.75-2.449,2.736,1.1.734,3.836,10.477,8.969,1.1,3.1-1.1,1.875.283,1.1,3.059-3.385-1.594-2.2,1.064-2.078,3.348,2.078.359-.895-2.2-2.2-3.8-2.084.9-.848-2.33-.455-2.154-2.035-.734-2.652-2.525-2.363v-2.77l3.26-1.309-.246,2.2,7.131,6.359,4.893,3.344v4.484l3.949,5.711,4.494.242a8.081,8.081,0,0,1-.781.793c-.039-.029-1.842-.687-1.842-.687l-1.57.156-.211,1.357,1.857,2.342,2.547,1.113.594-2.754a16.107,16.107,0,0,1-.072-1.66c.055-.012,1.2.693,1.2.693l.785-1.66-2.672-2.682-1.256-2.723.3-.883,2.074,1.6,1.4-.717-1.191-1.766,4.488-.352,1.85.352-1.1,3.232h1.57l-.225,3.48,2.826,3.639,4.611,1.943,1.756-.441.506-1.5,3.975,1.287,3.014-1,.975-1.541h1.816l.75-.6.5.332-.5,1.521.5,4.459-1.682,8.266-3.754,2.439-2.283-.479-4.137.793-1.8,1.857-8.643-1.277-5.293-1.8-2.7-1.535-5.461,2.754.471,2.918-2.65,2.33-8.846-4.4-.795-2.066-5.455-2.117h-2.07l-4.879-3.92,2.809-3.182-1.162-3.1,1.162-1.943-1.639-.555-.691-.7h-11.441l-4.932-.764-5.248.281-6.146,1.738s-1.592-.428-1.8-.555-2.809-1.719-2.809-1.719l-.641-1.854h-.795l-3.178,4.127a14.118,14.118,0,0,0-2.176.908c-.318.264-2.328,1.273-2.328,1.273l-.375,24.535,99.207-.582s-.877-1.594-.912-1.748-2.846-3.66-2.846-3.66v-2.33l3.758,5.406,1.654-5.033-.275,3.492h1.168l3.449,4.93,5.295-.369v-70.525h-74.465l-.521,1.715-2.631.721-.441,1.535-2.82,1.031-1.541.633a8.3,8.3,0,0,1-1.064-.633,6.812,6.812,0,0,0-1.191-.471l-.412,2.732-1.689-.25-.75-1.035-3.135.377v1.285l3.135,2.7.908,4.645-2.793,6.236-12.639-3.2-1.471,6.555-3.043,5.393.721,1.412-1.162,3.16,3.828,1.168.8,2.969.666.611,1.027-.887,5.834.756,1.865-1.629h1.447Z" transform="translate(21505.943 21048.955)" fill="#fff"/>
      <path id="Tracciato_34754" data-name="Tracciato 34754" d="M-21041.221-20759.324l.262,2.223-1.111,2.432-.988-.846v-2.244l1.379-.937Z" transform="translate(21083.869 20784.861)" fill="#e2e5e6"/>
      <path id="Tracciato_34755" data-name="Tracciato 34755" d="M-21064.684-20699.816l.453.51,1.951-.912.912,1.664-1.129,4.531-1.035-.289-.385.8-1.3-.389.691-4.393-.475-.262Z" transform="translate(21104.07 20730.963)" fill="#e2e5e6"/>
      <path id="Tracciato_34756" data-name="Tracciato 34756" d="M-21209.568-20679.227l1.473,1.252,1.154-1.129-.5-.869-2.248.746" transform="translate(21235.811 20712.502)" fill="#e2e5e6"/>
      <path id="Tracciato_34757" data-name="Tracciato 34757" d="M-20955.113-20589.682l-1.3,2.215v2.537l-6.2-3.377.488-1.375,3.418.553Z" transform="translate(21010.518 20630.17)" fill="#e2e5e6"/>
      <path id="Tracciato_34758" data-name="Tracciato 34758" d="M-20667.281-20499.2s3.244.93,3.3.93,3.113-.43,3.113-.43v-.785l-4.582-.232-1.463-.449Z" transform="translate(20741.215 20548.549)" fill="#e2e5e6"/>
      <path id="Tracciato_34759" data-name="Tracciato 34759" d="M-20435.369-20533.6l-2.152,1.379h-1.4a16.627,16.627,0,0,0-1.107,1.322c-.021.119,1.107.891,1.107.891l2.654-1.271-.316-.781Z" transform="translate(20534 20579.027)" fill="#e2e5e6"/>
    </g>
    <ellipse id="Ellisse_952" data-name="Ellisse 952" cx="33" cy="32.5" rx="33" ry="32.5" transform="translate(0.313 -0.067)" fill="none" stroke="#1e85d9" stroke-width="2"/>
  </g>
</svg>
