<svg xmlns="http://www.w3.org/2000/svg" xmlns:xlink="http://www.w3.org/1999/xlink" width="26" height="26" viewBox="0 0 26 26">
  <defs>
    <clipPath id="clip-icon_ferry">
      <rect width="26" height="26"/>
    </clipPath>
  </defs>
  <g id="icon_ferry" clip-path="url(#clip-icon_ferry)">
    <g id="Raggruppa_18480" data-name="Raggruppa 18480" transform="translate(-3992.489 8798.689)">
      <path id="Tracciato_33313" data-name="Tracciato 33313" d="M115.861,347.12a4.648,4.648,0,0,1-.907-.7,4.674,4.674,0,0,1-.908.7,3.7,3.7,0,0,1-3.846,0,4.66,4.66,0,0,1-.908-.7,4.669,4.669,0,0,1-.908.7,3.7,3.7,0,0,1-3.846,0,4.635,4.635,0,0,1-.908-.7,4.669,4.669,0,0,1-.908.7,3.777,3.777,0,0,1-1.923.538,4.025,4.025,0,0,1-2.8-1.212v1.539a4.545,4.545,0,0,0,5.634-.02,4.548,4.548,0,0,0,5.661,0,4.548,4.548,0,0,0,5.661,0,4.681,4.681,0,0,0,2.831.988c0-.007,0-1.3,0-1.3a7.24,7.24,0,0,1-1.923-.538Z" transform="translate(3896.666 -9128.053)" fill="#fff"/>
      <path id="Esclusione_33" data-name="Esclusione 33" d="M11.8,6.079H0V0H7.655L11.8,6.077ZM5.027.95V3.6H8.784L6.906.95ZM1.509.95V3.541H4.137V.95Z" transform="translate(3995.387 -8790.78)" fill="#fff"/>
      <path id="Tracciato_33806" data-name="Tracciato 33806" d="M119.035,170.7h-1.2v1.8h1.846Z" transform="translate(3879.528 -8962.979)" fill="#fff"/>
      <path id="Tracciato_33314" data-name="Tracciato 33314" d="M101.927,248.611a4.656,4.656,0,0,0,.908-.7,4.666,4.666,0,0,0,.908.7,3.7,3.7,0,0,0,3.846,0,4.65,4.65,0,0,0,.908-.7,4.672,4.672,0,0,0,.908.7,3.7,3.7,0,0,0,3.846,0,4.65,4.65,0,0,0,.908-.7,4.661,4.661,0,0,0,.908.7,3.791,3.791,0,0,0,1.827.535l3.2-6.075h-5.931l-2.015,1.829H95.964l1.237,3.038a4.022,4.022,0,0,0,2.8,1.212,3.781,3.781,0,0,0,1.923-.539Z" transform="translate(3897.463 -9030.812)" fill="#fff"/>
    </g>
  </g>
</svg>
