<svg xmlns="http://www.w3.org/2000/svg" xmlns:xlink="http://www.w3.org/1999/xlink" width="26" height="26" viewBox="0 0 26 26">
  <defs>
    <clipPath id="clip-icon_marittime">
      <rect width="26" height="26"/>
    </clipPath>
  </defs>
  <g id="icon_marittime" clip-path="url(#clip-icon_marittime)">
    <g id="Raggruppa_18477" data-name="Raggruppa 18477" transform="translate(5668.43 22397.633)">
      <path id="Tracciato_31901" data-name="Tracciato 31901" d="M-1713.2,1598.405l-1.323-3.975c-.306-.921-.6-1.845-.923-2.761a.505.505,0,0,1,.3-.72q3.335-1.571,6.667-3.146a2.294,2.294,0,0,1,.249-.075v.581q0,4.913,0,9.827c0,.309,0,.558.43.539.319-.014.441-.111.436-.442-.016-1.019-.006-2.037-.006-3.056q0-3.409,0-6.818v-.636c.2.09.339.149.475.212l6.294,2.947c.557.261.6.355.4.946q-1,3.006-2.01,6.012c-.052.158-.1.319-.178.579a2.327,2.327,0,0,1,2.2-.5,2.133,2.133,0,0,1,.768.43.569.569,0,0,1,.079.552.562.562,0,0,1-.547.106,1.577,1.577,0,0,0-2.025.126,2.093,2.093,0,0,1-2.509-.015,1.481,1.481,0,0,0-2.088-.01,2.233,2.233,0,0,1-2.6-.01,1.429,1.429,0,0,0-2.04.013,2.185,2.185,0,0,1-2.594-.012,1.508,1.508,0,0,0-1.942-.1c-.124.084-.4-.058-.606-.1.053-.2.039-.478.169-.6a2.1,2.1,0,0,1,2.375-.223C-1713.6,1598.159-1713.459,1598.253-1713.2,1598.405Z" transform="translate(-3948.127 -23973.395)" fill="#fff"/>
      <path id="Tracciato_31902" data-name="Tracciato 31902" d="M-1674.2,1522.185h-1.906c-.311,0-.647.008-.639.427s.339.425.652.424h1.894v2.473c-.2-.087-.358-.149-.509-.219-1.446-.677-2.894-1.344-4.332-2.037a1.629,1.629,0,0,0-1.525,0c-1.407.683-2.825,1.344-4.24,2.011-.152.072-.307.135-.5.219v-2.45h1.632a1.1,1.1,0,0,0,.463-.018,2.183,2.183,0,0,0,.435-.4c-.153-.142-.295-.39-.46-.407-.527-.054-1.063-.022-1.6-.023h-.431a.676.676,0,0,1-.043-.1c-.118-1.116-.053-1.189,1.042-1.189h.642v-.461c0-.8.006-1.6,0-2.4,0-.364.149-.569.522-.57q3.336,0,6.672,0c.372,0,.525.2.522.569-.007.936,0,1.872,0,2.858.368,0,.692,0,1.017,0,.6,0,.685.087.691.674C-1674.195,1521.752-1674.2,1521.938-1674.2,1522.185Zm-5.952-1.272v.807h.784v-.807Zm.772-1.343v-.791h-.789v.791Z" transform="translate(-3976.17 -23909.742)" fill="#fff"/>
      <path id="Tracciato_31903" data-name="Tracciato 31903" d="M-1637.007,1495.984h-2.458c-.208-.734.137-1.233.859-1.258.2-.007.407,0,.611,0C-1637.2,1494.737-1636.888,1495.12-1637.007,1495.984Z" transform="translate(-4017.679 -23889.141)" fill="#fff"/>
    </g>
  </g>
</svg>
