<svg xmlns="http://www.w3.org/2000/svg" xmlns:xlink="http://www.w3.org/1999/xlink" width="26" height="26" viewBox="0 0 26 26">
  <defs>
    <clipPath id="clip-icon_airport">
      <rect width="26" height="26"/>
    </clipPath>
  </defs>
  <g id="icon_airport" clip-path="url(#clip-icon_airport)">
    <g id="Raggruppa_18479" data-name="Raggruppa 18479" transform="translate(0.498 12.177) rotate(-45)">
      <path id="Tracciato_32100" data-name="Tracciato 32100" d="M7.825,10.518c-1.614,0-3.174,0-4.733.009a.493.493,0,0,0-.3.207c-.364.471-.7.962-1.076,1.424a.734.734,0,0,1-.45.23c-.313.035-.634,0-.951.013s-.359-.123-.278-.392c.268-.9.534-1.8.778-2.7a1.231,1.231,0,0,0,0-.611c-.235-.88-.5-1.753-.749-2.629-.119-.414-.086-.4.348-.463a1.531,1.531,0,0,1,1.8.894,1.757,1.757,0,0,0,1.975,1.02c1.183-.091,2.377-.022,3.626-.022-.048-.189-.081-.348-.129-.5Q6.664,3.762,5.646.531C5.5.066,5.516.04,6.016.045A3.634,3.634,0,0,1,7.57.123c.4.215.585.818.859,1.254q1.824,2.9,3.638,5.815a.574.574,0,0,0,.568.308c1.521-.012,3.042-.009,4.563,0a1.488,1.488,0,0,1,1.539,1.957,1.4,1.4,0,0,1-1.446,1.061c-1.548.007-3.1.011-4.643,0a.6.6,0,0,0-.594.332c-1.4,2.257-2.822,4.5-4.219,6.761a.663.663,0,0,1-.694.373,9.963,9.963,0,0,0-1.19,0c-.346.015-.442-.075-.327-.435.616-1.91,1.21-3.827,1.811-5.742C7.564,11.384,7.687,10.97,7.825,10.518Z" transform="translate(0 0)" fill="#f3f6f7"/>
    </g>
  </g>
</svg>
