<svg xmlns="http://www.w3.org/2000/svg" xmlns:xlink="http://www.w3.org/1999/xlink" width="26" height="26" viewBox="0 0 26 26">
  <defs>
    <clipPath id="clip-icon_train">
      <rect width="26" height="26"/>
    </clipPath>
  </defs>
  <g id="icon_train" clip-path="url(#clip-icon_train)">
    <path id="Tracciato_34774" data-name="Tracciato 34774" d="M157.9,0h5.826a3.851,3.851,0,0,1,3.79,3.931v7.511a3.976,3.976,0,0,1-2.6,3.79l1.474,3.931h-1.053l-.7-1.9h-7.581l-.7,1.9h-1.123l1.474-3.931a3.976,3.976,0,0,1-2.6-3.79V3.931A3.851,3.851,0,0,1,157.9,0Zm6.317,16.285-.281-.842h-6.247l-.281.842Zm.421-5.194a.871.871,0,0,0-.842.913.811.811,0,0,0,.842.842.854.854,0,0,0,.842-.842A.919.919,0,0,0,164.635,11.091Zm-7.651,0a.87.87,0,0,1,.842.913.811.811,0,0,1-.842.842.854.854,0,0,1-.842-.842A.919.919,0,0,1,156.984,11.091Zm.07-9.125h7.511a1.5,1.5,0,0,1,1.474,1.544V5.966a1.5,1.5,0,0,1-1.474,1.544h-7.511a1.5,1.5,0,0,1-1.474-1.544V3.51A1.5,1.5,0,0,1,157.054,1.966Z" transform="translate(-147.309 3.919)" fill="#fff" fill-rule="evenodd"/>
  </g>
</svg>
