<svg xmlns="http://www.w3.org/2000/svg" xmlns:xlink="http://www.w3.org/1999/xlink" width="93" height="93" viewBox="0 0 93 93">
  <defs>
    <clipPath id="clip-Tavola_da_disegno_2">
      <rect width="93" height="93"/>
    </clipPath>
  </defs>
  <g id="Tavola_da_disegno_2" data-name="Tavola da disegno – 2" clip-path="url(#clip-Tavola_da_disegno_2)">
    <path id="Ellisse_1015" data-name="Ellisse 1015" d="M46.5,3A43.512,43.512,0,0,0,29.569,86.583,43.512,43.512,0,0,0,63.431,6.417,43.225,43.225,0,0,0,46.5,3m0-3A46.5,46.5,0,1,1,0,46.5,46.5,46.5,0,0,1,46.5,0Z" fill="#fff"/>
    <path id="Tracciato_35143" data-name="Tracciato 35143" d="M17144.98-9788.775c-.039,0-.078,0-.117,0a1.5,1.5,0,0,1-1.381-1.61,61.853,61.853,0,0,1,3.539-15.467,30.973,30.973,0,0,1,6.568-10.867,16.416,16.416,0,0,1,12.014-5.147,13.046,13.046,0,0,1,7.992,2.761,23.844,23.844,0,0,1,5.924,6.981,1.5,1.5,0,0,1-.518,2.057,1.485,1.485,0,0,1-.768.213,1.5,1.5,0,0,1-1.289-.73c-3.334-5.572-7.043-8.281-11.342-8.281-6.908,0-12.217,4.738-15.777,14.082a59.638,59.638,0,0,0-3.352,14.63A1.5,1.5,0,0,1,17144.98-9788.775Z" transform="translate(-17119 9823)" fill="#fff"/>
    <path id="Ellisse_1017" data-name="Ellisse 1017" d="M46.5,3A83.794,83.794,0,0,0,29.027,4.78,58.218,58.218,0,0,0,14.973,9.56a28.611,28.611,0,0,0-9.018,6.718A11.249,11.249,0,0,0,3,23.5a11.249,11.249,0,0,0,2.955,7.222,28.611,28.611,0,0,0,9.018,6.718,58.218,58.218,0,0,0,14.055,4.78A83.794,83.794,0,0,0,46.5,44a83.794,83.794,0,0,0,17.473-1.78,58.218,58.218,0,0,0,14.055-4.78,28.611,28.611,0,0,0,9.018-6.718A11.249,11.249,0,0,0,90,23.5a11.249,11.249,0,0,0-2.955-7.222A28.611,28.611,0,0,0,78.027,9.56,58.218,58.218,0,0,0,63.973,4.78,83.794,83.794,0,0,0,46.5,3m0-3C72.181,0,93,10.521,93,23.5S72.181,47,46.5,47,0,36.479,0,23.5,20.819,0,46.5,0Z" transform="translate(0 23)" fill="#fff"/>
    <path id="Tracciato_35144" data-name="Tracciato 35144" d="M17159.084-9788.776a13.459,13.459,0,0,1-9.189-3.729,28.874,28.874,0,0,1-6.266-8.9,1.5,1.5,0,0,1,.7-2,1.488,1.488,0,0,1,.652-.15,1.5,1.5,0,0,1,1.352.846c3.57,7.361,7.744,10.939,12.756,10.939,6.908,0,12.217-4.738,15.777-14.082a59.638,59.638,0,0,0,3.352-14.63,1.5,1.5,0,0,1,1.494-1.385c.039,0,.078,0,.117,0a1.5,1.5,0,0,1,1.381,1.61,61.853,61.853,0,0,1-3.539,15.467,30.973,30.973,0,0,1-6.568,10.867A16.416,16.416,0,0,1,17159.084-9788.776Z" transform="translate(-17114 9880.001)" fill="#fff"/>
    <path id="Tracciato_35147" data-name="Tracciato 35147" d="M4.75-5.55a3.7,3.7,0,0,0,.438,1.575,2.992,2.992,0,0,0,.95,1.012,3.9,3.9,0,0,0,1.363.55,8.03,8.03,0,0,0,1.65.163,7.271,7.271,0,0,0,1.688-.187,4.485,4.485,0,0,0,1.363-.55,2.854,2.854,0,0,0,.912-.9A2.324,2.324,0,0,0,13.45-5.15a3.044,3.044,0,0,0-.15-.887,2.127,2.127,0,0,0-.575-.9A3.262,3.262,0,0,0,11.5-7.625,6.608,6.608,0,0,0,9.4-7.9H7.3v-2.5H9.65A4.646,4.646,0,0,0,12-10.9a1.74,1.74,0,0,0,.85-1.625,2.255,2.255,0,0,0-.2-.925,2.194,2.194,0,0,0-.65-.812,3.359,3.359,0,0,0-1.187-.575A6.635,6.635,0,0,0,9-15.05a4.859,4.859,0,0,0-1.7.262,3.378,3.378,0,0,0-1.15.688,2.808,2.808,0,0,0-.675.963,3.173,3.173,0,0,0-.25,1.087h-3.6a5.928,5.928,0,0,1,.837-2.675,5.529,5.529,0,0,1,1.75-1.737,7.457,7.457,0,0,1,2.4-.95A13.355,13.355,0,0,1,9.425-17.7a11.45,11.45,0,0,1,3.425.438,6.351,6.351,0,0,1,2.213,1.15,4.019,4.019,0,0,1,1.187,1.625A5.227,5.227,0,0,1,16.6-12.6a3.24,3.24,0,0,1-.138.9,3,3,0,0,1-.45.913,3.439,3.439,0,0,1-.825.8A4.29,4.29,0,0,1,13.9-9.4v.05a4.571,4.571,0,0,1,2.525,1.462,3.763,3.763,0,0,1,.925,2.513,6.836,6.836,0,0,1-.1,1.087,4.906,4.906,0,0,1-.4,1.263,4.936,4.936,0,0,1-.863,1.263A5.3,5.3,0,0,1,14.512-.675,9.325,9.325,0,0,1,12.275.1,14.567,14.567,0,0,1,9.1.4,15.364,15.364,0,0,1,6.288.138a7.886,7.886,0,0,1-2.55-.925A5.38,5.38,0,0,1,1.875-2.6,5.448,5.448,0,0,1,1.15-5.55Zm17.7.025a3.43,3.43,0,0,0,.225,1.238,2.728,2.728,0,0,0,.712,1.038,3.594,3.594,0,0,0,1.288.725,6.133,6.133,0,0,0,1.975.275,6.041,6.041,0,0,0,1.95-.275,3.594,3.594,0,0,0,1.287-.725A2.728,2.728,0,0,0,30.6-4.288a3.43,3.43,0,0,0,.225-1.238,3.531,3.531,0,0,0-.225-1.25,2.708,2.708,0,0,0-.713-1.05A3.594,3.594,0,0,0,28.6-8.55a6.041,6.041,0,0,0-1.95-.275,6.133,6.133,0,0,0-1.975.275,3.594,3.594,0,0,0-1.288.725,2.708,2.708,0,0,0-.712,1.05A3.531,3.531,0,0,0,22.45-5.525Zm8-7.425a2.592,2.592,0,0,0-1.025-1.513A4.1,4.1,0,0,0,27-15.05a5.065,5.065,0,0,0-2.075.4A4.215,4.215,0,0,0,23.4-13.513a5.407,5.407,0,0,0-.975,1.75,7.8,7.8,0,0,0-.4,2.238A6.078,6.078,0,0,1,24.4-11.063a9.721,9.721,0,0,1,3.025-.412,9.973,9.973,0,0,1,3.337.487A6.254,6.254,0,0,1,32.975-9.7,4.692,4.692,0,0,1,34.2-7.863a6.242,6.242,0,0,1,.375,2.137,5.831,5.831,0,0,1-.45,2.225A5.279,5.279,0,0,1,32.7-1.538a7.5,7.5,0,0,1-2.487,1.4A10.9,10.9,0,0,1,26.575.4a9.737,9.737,0,0,1-3.913-.688,6.238,6.238,0,0,1-2.5-1.913,7.62,7.62,0,0,1-1.337-2.875,15.267,15.267,0,0,1-.4-3.6,14.354,14.354,0,0,1,.125-1.788,10.223,10.223,0,0,1,.462-1.988,9.836,9.836,0,0,1,.913-1.95A6.392,6.392,0,0,1,21.4-16.075a7.313,7.313,0,0,1,2.175-1.175,9.02,9.02,0,0,1,3-.45,9.577,9.577,0,0,1,5.4,1.263,4.828,4.828,0,0,1,2.15,3.488Zm18,4.275a11.269,11.269,0,0,0-.25-2.4,6.615,6.615,0,0,0-.788-2.037A4.093,4.093,0,0,0,46-14.525a4.008,4.008,0,0,0-2.1-.525,3.992,3.992,0,0,0-2.112.525,4.13,4.13,0,0,0-1.4,1.413,6.615,6.615,0,0,0-.787,2.037,11.269,11.269,0,0,0-.25,2.4,11.567,11.567,0,0,0,.25,2.438,6.608,6.608,0,0,0,.787,2.05,4.13,4.13,0,0,0,1.4,1.412A3.992,3.992,0,0,0,43.9-2.25,4.008,4.008,0,0,0,46-2.775a4.093,4.093,0,0,0,1.413-1.412,6.608,6.608,0,0,0,.788-2.05A11.567,11.567,0,0,0,48.45-8.675Zm3.6,0a12.792,12.792,0,0,1-.488,3.612,7.684,7.684,0,0,1-1.525,2.875A7.091,7.091,0,0,1,47.4-.288,9.582,9.582,0,0,1,43.6.4a8.156,8.156,0,0,1-3.475-.688,6.753,6.753,0,0,1-2.45-1.9,8.062,8.062,0,0,1-1.45-2.875,13.107,13.107,0,0,1-.475-3.612,12.662,12.662,0,0,1,.488-3.6,7.576,7.576,0,0,1,1.525-2.85,7.179,7.179,0,0,1,2.625-1.888A9.561,9.561,0,0,1,44.2-17.7a8.092,8.092,0,0,1,3.45.688,6.813,6.813,0,0,1,2.45,1.888,8.1,8.1,0,0,1,1.462,2.85A12.662,12.662,0,0,1,52.05-8.675Z" transform="translate(19 55)" fill="#fff"/>
    <path id="Ellisse_1018" data-name="Ellisse 1018" d="M3.5,2A1.5,1.5,0,1,0,5,3.5,1.5,1.5,0,0,0,3.5,2m0-2A3.5,3.5,0,1,1,0,3.5,3.5,3.5,0,0,1,3.5,0Z" transform="translate(70 33)" fill="#fff"/>
    <path id="Tracciato_35148" data-name="Tracciato 35148" d="M2,0A2,2,0,1,1,0,2,2,2,0,0,1,2,0Z" transform="translate(60 15)" fill="#fff"/>
    <path id="Tracciato_35149" data-name="Tracciato 35149" d="M2,0A2,2,0,1,1,0,2,2,2,0,0,1,2,0Z" transform="translate(27 71)" fill="#fff"/>
  </g>
</svg>
