<svg xmlns="http://www.w3.org/2000/svg" width="32.995" height="37.301" viewBox="0 0 32.995 37.301">
  <path id="Icon_awesome-hand-pointer" data-name="Icon awesome-hand-pointer" d="M31.5,16.875v6.75a2.811,2.811,0,0,1-.075.644l-2.25,9.563A2.813,2.813,0,0,1,26.438,36H11.813a2.813,2.813,0,0,1-2.275-1.158l-9-12.375a2.812,2.812,0,1,1,4.549-3.308l2.225,3.06V2.813a2.813,2.813,0,0,1,5.625,0V16.875H13.5V14.063a2.813,2.813,0,0,1,5.625,0v2.813h.563V15.188a2.813,2.813,0,0,1,5.625,0v1.688h.563a2.813,2.813,0,0,1,5.625,0Z" transform="translate(0.845 0.65)" fill="none" stroke="#fff" stroke-width="1.3"/>
</svg>
