<svg xmlns="http://www.w3.org/2000/svg" xmlns:xlink="http://www.w3.org/1999/xlink" width="26" height="26" viewBox="0 0 26 26">
  <defs>
    <clipPath id="clip-icon_railway">
      <rect width="26" height="26"/>
    </clipPath>
  </defs>
  <g id="icon_railway" clip-path="url(#clip-icon_railway)">
    <path id="Tracciato_34773" data-name="Tracciato 34773" d="M116.005,29.878l-.347-1.2a.266.266,0,0,0-.251-.193h-1.233l-.694-2.39H114.5a.265.265,0,0,0,.251-.347l-.366-1.214a.266.266,0,0,0-.251-.193H112.96l-.694-2.39h1a.265.265,0,0,0,.251-.347l-.366-1.214a.266.266,0,0,0-.251-.193h-1.156l-.713-2.39h.983a.265.265,0,0,0,.251-.347l-.366-1.214a.266.266,0,0,0-.251-.193h-1.137l-.559-1.87A.266.266,0,0,0,109.7,14H108.8a.273.273,0,0,0-.27.308l.308,1.754h-2.949l.308-1.754a.256.256,0,0,0-.27-.308h-.906a.25.25,0,0,0-.251.193l-.559,1.87h-1.137a.25.25,0,0,0-.251.193l-.366,1.214a.265.265,0,0,0,.251.347h1l-.694,2.39h-1.156a.25.25,0,0,0-.251.193l-.385,1.214a.265.265,0,0,0,.251.347h1l-.694,2.39h-1.156a.25.25,0,0,0-.251.193l-.366,1.214a.265.265,0,0,0,.251.347h1.021l-.694,2.39H99.353a.25.25,0,0,0-.251.193L98.736,29.9a.265.265,0,0,0,.251.347h1.079l-.5,1.735a.265.265,0,0,0,.251.347H102.8a.27.27,0,0,0,.27-.231l.328-1.85h7.921l.328,1.85a.27.27,0,0,0,.27.231h2.987a.265.265,0,0,0,.251-.347l-.5-1.735h1.079a.29.29,0,0,0,.27-.366ZM105.578,17.813h3.566l.424,2.39h-4.394Zm-.713,4.144h5.011l.424,2.39h-5.859Zm-1.156,6.534.424-2.39h6.476l.424,2.39Z" transform="translate(-93.871 -10.661)" fill="#fff"/>
  </g>
</svg>
