<?xml version="1.0" encoding="UTF-8"?>
<svg xmlns="http://www.w3.org/2000/svg" viewBox="0 0 1920 1080">
    <defs>
        <style>
            .cls-1,
            .cls-2,
            .cls-3,
            .cls-4,
            .cls-5,
            .cls-6,
            .cls-7,
            .cls-8,
            .cls-9,
            .cls-10 {
                fill: none;
            }

            .cls-1,
            .cls-2,
            .cls-3,
            .cls-4,
            .cls-6,
            .cls-7,
            .cls-8,
            .cls-9 {
                stroke-width: .04px;
            }

            .cls-1,
            .cls-4,
            .cls-6,
            .cls-7,
            .cls-8,
            .cls-9 {
                isolation: isolate;
            }

            .cls-1,
            .cls-7,
            .cls-8 {
                stroke: #ffe71a;
            }

            .cls-1,
            .cls-8 {
                opacity: .68;
            }

            .cls-2,
            .cls-3,
            .cls-4,
            .cls-10 {
                stroke: #6b9bd2;
            }

            .cls-2,
            .cls-10 {
                stroke-dasharray: 0 0 .22 .04;
            }

            .cls-4 {
                opacity: .59;
            }

            .cls-4,
            .cls-8,
            .cls-9 {
                stroke-dasharray: 0 0 .23 .04;
            }

            .cls-6,
            .cls-9 {
                opacity: .67;
                stroke: #f80;
            }

            .cls-7 {
                opacity: .69;
            }

            .cls-10 {
                stroke-width: .04px;
            }
        </style>
    </defs>
    <g id="schermo">
        <rect class="cls-5" width="1920" height="1080" />
    </g>
    <g id="corridoio_1">
        <path id="Tracciato_31354" class="cls-9"
            d="m927.68,518.47l1.49-3.43,7.35-2.26,2.48-.62,1.43.67,1.91.9.83.28,3.33-.69,8.53-1.17" />
        <path id="Tracciato_33769" class="cls-6"
            d="m927.95,518.23l1.3-3.14,7.02-2.15,2.73-.83,1.43.67,1.91.9.83.28,11.86-1.85" />
    </g>
    <g id="corridoio_2">
        <path id="Tracciato_34562" class="cls-1" d="m920.14,514.17l3.6.92,2.57-1.09,2.87,1.01,9.97-2.94" />
        <path id="Tracciato_34563" class="cls-8" d="m919.59,514.1l4.25,1.06,2.56-1.23,2.83,1.03,9.87-2.91" />
        <path id="Tracciato_31352" class="cls-7"
            d="m939.15,512.07l.13-1.96-.47-1.21-.22-1.12,1.27-.55.64-.73h1.37l2.11-1.65,4.59-.06,10.7-8.84" />
        <path id="Tracciato_32190" class="cls-8"
            d="m939.1,512.03l-.2-1.5-.48-1.22-.2-1.34,2.09-.53-.13-.91.56.1h.87l.2-.32,1.63-1.74,3.53-.08,7.05-8.79" />
        <path id="Tracciato_31352-2" class="cls-7" d="m939.15,512.08l3.26,1.64.79.26,1.91-.31,4.74-.74,1.65.94" />
        <path id="Tracciato_32190-2" class="cls-8"
            d="m939.14,512.12l3.11,1.5.71.19.22.19,1.8-.39,1.45-.35,3.04-.35,2.04.07" />
    </g>
    <g id="linee_poli">
        <path id="Tracciato_34560" class="cls-4" d="m942.54,513.77l.58.96" />
        <path id="Tracciato_34561" class="cls-3" d="m941.79,513.51l.75,1.04-.61.37" />
        <line class="cls-10" x1="938.21" y1="513.3" x2="939.18" y2="512.33" />
        <line class="cls-10" x1="941.07" y1="511.32" x2="939.9" y2="512.48" />
        <line class="cls-2" x1="935.73" y1="511.37" x2="936.97" y2="512.61" />
    </g>
</svg>