<?xml version="1.0" encoding="UTF-8"?><svg xmlns="http://www.w3.org/2000/svg" xmlns:xlink="http://www.w3.org/1999/xlink" viewBox="0 0 383.6 201.21"><defs><style>.cls-1{fill:#fff;}.cls-2{clip-path:url(#clippath-2);}.cls-3{opacity:.15;}.cls-3,.cls-4{stroke:#8fbace;}.cls-3,.cls-4,.cls-5{fill:none;}.cls-3,.cls-4,.cls-6{isolation:isolate;}.cls-7{clip-path:url(#clippath-1);}.cls-8{clip-path:url(#clippath);}.cls-4{opacity:.03;}.cls-9{opacity:.32;}.cls-6{fill:#1e83d6;opacity:.37;}.cls-10{fill:#359ff6;}</style><clipPath id="clippath"><rect class="cls-5" x="-6714.9" y="-378.13" width="6648.21" height="3507.54"/></clipPath><clipPath id="clippath-1"><rect class="cls-5" x="-6296.28" y="-419.49" width="6378.45" height="3746.3"/></clipPath><clipPath id="clippath-2"><rect class="cls-5" x="-5207.51" y="-3657.56" width="8099.14" height="10222.44"/></clipPath></defs><g id="mappa"><g id="Raggruppa_17247" class="cls-9"><g id="Raggruppa_17111"><g id="Raggruppa_17056"><g class="cls-8"><g id="Gruppo_di_maschere_92"><g class="cls-7"><g id="Gruppo_di_maschere_93"><g id="Raggruppa_17036"><g class="cls-2"><g id="Raggruppa_17035"><path id="Tracciato_31726" class="cls-4" d="m193.01,1404.26l-139.18,102.11-1.92,32.27-44-42.38-75.57,2.4,3.79-66.46-19.58-27.94-22-64.06-20.12,1.93-44-62.64-183.18,10.15s-113.35-122.37-205.21-170.53l-163.56,52.49-3.36,315.02h-34.42s-55.95-84.28-75.57-90.54c-14.34-4.33-59.78,23.1-83.23,38.52-13.87-12.51-9.1-54.42-10.51-64.53-1.91-13.97-49.74-48.16-67.95-53.95-17.7-6.26-39.7-82.36-51.65-98.76-11.96-15.9-8.13-33.68,17.7-26.01,25.83,8.19,14.34-48.16,38.29-52.02,23.91-4.33,49.74-1.93,75.57-18.3,9.07-5.28,25.83-38.05,23.91-58.28-1.91-19.75-27.74-48.16-27.74-48.16-89.44-24.08-154.97,7.71-200.41,43.36l-68.89-43.36,41.61-5.78-59.31-87.19h-56.93l2.89-54.42-35.87-5.78,26.77-66.46-2.85-75.15,42.08-48.16s50.72,51.07,65.53,53.95c14.81,3.38-6.21-72.24-6.21-72.24l47.83-14.91,3.36-29.86,83.7-60.24,32.51,2.91s0,26.99,12.46,21.21c11.45-6.29,50.68-30.37,50.68-30.37l14.85,24.08h47.83l38.72,39.03,33.01,57.33,9.07-48.16,68.89,54.42c6.95-11.78,14.95-22.91,23.91-33.25,14.85-17.83,47.83-30.34,47.83-30.34l32.55,27.46,15.28-27.46s35.4-5.78,41.61,6.26,68.89,51.07,68.89,51.07l20.55-33.25s39.23,21.21,77.99,21.21,17.7-60.24-2.89-80.94c-21.02-21.21-56.89-30.34-56.89-30.34,0,0-14.85-21.21,11.96-39.03,26.77-18.3,32.98-24.08,30.13-39.47-3.36-14.95,5.74-51.07,5.74-51.07l71.74,6.26-59.78-30.34,14.81-21.21-38.72-17.79,23.91-41.94,38.72,8.69,39.23,2.87,80.37-32.74,92.76-15.42,5.74-35.65,170.75-27.43,14.85-20.74,29.66-33.21s27.27,26.96,60.25,33.21c32.55,5.78,44.47-9.13,56.46-9.13s2.85,33.21,11.96,39c9.07,5.78,3.32,53.95,6.21,81.41,2.85,26.95,56.42-14.95,56.42-14.95l33.02,32.78,86.55-5.78s-14.81,17.82-29.62,24.08c-14.85,5.78,0,39.03,0,39.03l47.83-26.99s53.57-27.46,125.31-66.46c71.74-39.03,32.98,3.35,21.02,12.04-11.96,9.13-2.85,33.21-2.85,33.21,0,0,83.7,78.54,92.8,87.2,8.6,9.17,113.35,228.81,113.35,228.81,0,0,38.72-44.82,47.83-60.2,9.1-14.95,30.13,45.25,30.13,45.25l23.91,12.04,44.97,2.91s14.81-14.95,56.42-17.82c42.12-2.91,50.72,51.04,50.72,51.04l42.08,29.86s14.85,33.25,47.83,54.42c33.01,21.21,68.89-30.34,68.89-30.34,0,0-2.89,18.3-2.89,27.46,0,5.78,21.06,17.82,39.23,26.01l-39.23,22.15,2.89,36.12-71.74,39.03s2.85,12.04,0,69.33c-2.89,57.33-47.82,57.33-47.82,57.33l-101.9-39.51-47.83,132.48,11.96,54.42-50.68-9.17-98.54,26.99,44.97,144.49-36.38,30.34v60.2l-56.42-45.25-263.08-6.26-39.19-41.91-56.46,14.92,5.74,66.5-134.41-33.25-11.96,34.19-16.26,12.03Z"/><path id="Tracciato_31759" class="cls-3" d="m2884.94,707.79c-15.35-14.91-33.02-41.9-74.67,6.26-42.05,48.16-108.08,72.24-182.71,72.24s-149.22-18.3-161.18-48.16c-11.96-30.34-47.79-24.08-47.79-24.08,0,0-21.1-60.68-80.88-48.16-59.78,11.57-155.4,51.07-194.16,2.88-39.23-48.16-44.97-93.42-44.97-93.42l-62.67-29.87-75.06-3.38,3.32-20.7-54-27.46c-74.67,78.5-59.86,138.7-47.86,156.53,11.96,18.3-5.71,84.32-32.55,81.41-27.27-2.87-71.7-39-108.08-26.95-35.4,12.04-83.23-3.38-98.54-39.03-14.81-36.6-71.7-12.51-71.7-12.51l-2.89-17.83-53.57-17.82-185.6,135.36-56.89,9.13s-6.68,9.64-14.85,16.37h-.51c-4.73,4.37-10.04,7.71-14.3,7.71s-13.4-2.88-23.44-7.2c-18.21-8.19-39.23-20.23-39.23-26.01,0-9.17,2.89-27.46,2.89-27.46,0,0-35.9,51.55-68.92,30.34-32.98-21.17-47.79-54.42-47.79-54.42l-42.12-29.87s-8.56-53.94-50.68-51.07c-41.65,2.91-56.43,17.83-56.43,17.83l-45.01-2.88-23.91-12.04s-21.02-60.2-30.13-45.29c-9.1,15.42-47.79,60.21-47.79,60.21,0,0-104.8-219.64-113.36-228.77-9.1-8.7-92.8-87.2-92.8-87.2,0,0-9.1-24.08,2.82-33.25,11.99-8.66,50.75-51.04-21.02-12.04-71.7,39.03-125.27,66.5-125.27,66.5l-47.86,26.96s-14.81-33.21,0-39c14.85-6.26,29.66-24.08,29.66-24.08l-86.59,5.78-32.98-32.78s-53.57,41.91-56.46,14.95c-2.89-27.46,2.89-75.63-6.21-81.41s0-39.03-11.92-39.03-23.91,14.95-56.46,9.17c-32.98-6.26-60.25-33.25-60.25-33.25l-29.66,33.25-14.85,20.7-170.75,27.47-5.74,35.65-92.8,15.42-80.34,32.74-39.23-2.87-38.72-8.7-23.95,41.91,38.76,17.82-14.81,21.21,59.78,30.34-71.74-6.26s-9.14,36.12-5.78,51.04c2.89,15.42-3.36,21.21-30.13,39.5-26.77,17.82-11.92,39.03-11.92,39.03,0,0,35.83,9.13,56.86,30.34,20.63,20.7,41.65,80.9,2.93,80.9s-77.99-21.17-77.99-21.17l-20.55,33.21s-62.67-39-68.89-51.04c-6.25-12.04-41.61-6.26-41.61-6.26l-15.28,27.43-32.55-27.43s-32.98,12.51-47.83,30.34c-8.96,10.33-16.96,21.44-23.91,33.21l-68.89-54.42-9.07,48.16-33.02-57.29-38.72-39.03h-47.83l-14.85-24.08s-39.23,24.08-50.68,30.34c-12.46,5.78-12.46-21.17-12.46-21.17l-32.51-2.91-83.7,60.2-3.36,29.87-47.83,14.95s21.02,75.62,6.21,72.24c-14.81-2.91-65.53-53.95-65.53-53.95l-42.08,48.16,2.85,75.15-26.77,66.46,35.87,5.78-2.89,54.42h56.93l59.31,87.19-41.61,5.78,68.89,43.33-.97.98c-45.91,36.12-135.82,102.58-135.82,128.59s28.21,60.2,30.13,104.51c1.92,43.83,5.74,102.15,41.61,134.41,6.3,5.4,11.92,11.54,16.72,18.3l-44.47,42.85-38.75-12.04-26.77-33.21-34.93-11.57-19.11-6.73-23.91-48.2-14.85-11.53-42.08,5.79-35.87,12.04-17.7-17.83-71.74-45.29-50.72,2.87-80.84-26.96-21.49,8.66c-58.37-47.18-107.68-97.78-127.3-102.11-25.79-5.79-43.53-48.16-17.66-94.4,25.83-46.23,59.78-94.4,69.83-100.18,10.04-6.26,57.9-30.34,10.04-30.34-15.28,0-32,2.4-49.24,6.26,5.71-23.14,14.34-53.48,22-61.19,13.4-13.5,52.63-12.04,73.18-12.04s16.72-18.3,18.17-31.79-30.13-29.87-30.13-29.87l33.02-30.34-35.91-16.37,33.02-6.26s9.1-28.45,10.51-34.7c1.45-5.78-22.47-7.2-32.98-7.2s-37.32-14.95-37.32-14.95l-40.67-33.21c-8.34,4.36-16.33,9.35-23.91,14.91-11.45,9.17-37.28-49.62-37.28-49.62,0,0-34.46,21.21-45.95,21.21-12.46,0-40.64-28.92-40.64-28.92l-22.5,21.21-14.81-33.25-1.45-28.41-11.96,1.46,1.45-36.12-62.67,4.33-4.77-46.23h25.36l-32.59-43.83-16.69-24.08-29.65,13.46-18.17,10.62-2.89-12.04-32.98-4.84.47,27.47-40.64.98v-46.24h-15.79l-2.42-66.02,57.9,7.71,32.04-38.05-22.04-17.82v-20.23l-39.66,10.11,3.83-48.16-29.66-2.4-13.87-53.95-23.95-13.97,11.49-30.34-19.61-19.75,13.87-18.3,1.88-22.15-21.96-7.71-15.79-22.15-32.07,19.76-19.62,10.11-2.35-34.23-37.78,4.36-38.72-21.68-6.72-84.79-32.98,9.17,9.07-57.33-18.17-18.3,1.44-3.38,22.43-59.69s-21.02-78.06-18.13-96.36c3.36-17.82,47.79-57.29,47.79-57.29l-11.45-23.61c34.43-13.97,51.15-48.67,71.7-48.67,26.84,0,68.45,0,53.57-14.92-14.77-14.95-65.96-20.7-74.56-33.25-7.19-8.66-19.18-32.74-70.8-27.94,59.78-75.12,207.56-262.49,229.13-302.94,26.77-51.07-89.48-126.7-89.48-126.7l32.55-44.78-26.84-30.34-2.82-72.28h-23.91l-9.1-21.17,17.7-20.74-14.81-12.04,6.21-72.24,26.73-6.26s-68.81-183.52-68.81-192.65,39.16-60.2,42.08-72.24c2.85-12.08,23.91-57.33,0-84.32-23.95-26.96-68.89-45.25-68.89-45.25l9.1-92.98c-.57-10.44-.41-20.9.47-31.32l26.3-13.97,14.85-45.25,44.9-20.7v-39.51l23.95,15.39h26.8l-1.48-29.36c50.28,29.36,121.52,64.53,171.76,68.39,77.92,5.78,137.7,17.82,224.32,102.11,86.51,84.28,230.07,132.45,233.42,213.86,2.85,81.41,20.55,96.32-42.12,156.53-62.64,60.24-98.51,87.2-235.81,24.08-137.74-63.08-215.26-102.11-233.39-111.24-18.17-9.17-35.91-24.08,2.85,33.21,39.23,56.86,116.71,87.19,119.57,131.97,2.89,45.29,9.07,159.95,21.06,198.94,11.96,39.03,80.84,96.32,113.82,99.24,32.55,3.38,71.78,3.38,62.67-26.99-9.1-30.34-44.97-51.04-68.92-90.07-23.88-39.5-9.03-81.41,47.86-45.29,56.93,36.16,200.41,69.37,167.43,12.08-33.02-57.33-68.89-72.28-33.02-102.62,35.87-29.86,125.82-162.31,185.6-132.45,59.78,30.34,95.65,39,95.65-5.78,0-19.75-7.66-44.78-15.79-72.72l96.63-16.88c3.83,6.73,9.57,12.04,17.7,16.37,47.83,24.08,23.91,31.79,123.4-88.61,99.95-120.41,243.47-248.53,339.12-200.36s107.61,19.75,179.35,12.04c71.74-8.19,143.52-12.04,210.92-40.49,67.95-27.94,32.08-128.12-7.62-148.34-40.24-20.22,0-60.2,83.7-24.08,83.66,36.12,195.14,48.16,266.88,128.59,71.77,79.99,127.73,140.2,151.64,140.2s99.48-15.9,23.88-120.44c-76.04-104.04-135.82-228.77-111.87-288.97,23.91-60.2,91.79-192.69,127.69-316.95,35.87-124.26,47.79-160.38,111.4-144.49,64.08,15.9,167.39,39.98,131.56,196.51-35.87,156.53,16.29,172.93,11.92,249.03-3.83,76.1-31.53,345.36,8.16,345.36s107.61,36.12,87.53-92.51c-19.61-128.59-47.83-385.34,44.03-441.68,91.79-55.87,215.18-148.34,247.26-128.12,31.53,19.75,111.48,120.41,151.17,120.41s67.91-32.27,32-84.28c-35.87-52.49-123.4-200.83-103.78-252.85,20.08-52.53,351.04-40.49,378.82-100.69,27.74-60.2-95.65-120.41-23.95-208.55,71.78-88.14,163.64-212.91,266.95-212.91s139.65-48.16,191.27-67.92c52.16-20.23,139.69-40.45,227.25-44.31,87.96-3.86,91.79-60.2,147.74-84.28,55.52-24.08,79.43-56.35,95.69-136.3,15.78-80.46,63.61-180.65,127.22-200.87,64.08-20.22,183.65,39.98,159.74,68.39-23.91,27.94-103.78,92-67.88,88.18,35.87-3.89,159.27,15.86,167.36,60.2,8.16,44.31,211.46,8.18,251.16,48.16,39.7,39.98,207.06,228.77,107.57,349.18-99.48,120.44-290.75,285.16-266.88,316.95,23.91,32.27,115.3,24.08,210.92,40.45l124.88,3315.32Z"/></g></g></g></g></g></g></g></g></g></g></g><g id="logo_camera"><g><path id="FVG_ROSSSO" class="cls-6" d="m91.68,173.79l-8.39-23.08-22.39-4.22-16.25,6.61-29.32-26.62-2.17-22.54,11.48-6.16.39-11.22-9.5-8.13L.56,65.74l9.97-13.69,33.21-25.05,14.38-12.61L54.76.22l53.48,14.04,52.95,3.73,17.89,5.63-3.83,9.59-41.25,25.55-.42,12.05.43,6.99,4.77,2.57,3.45-2.28,3.91.14,13.8,6.87,8.42,2.28s.16,3.28-.13,3.7-2.3,3.89-2.3,3.89l-19.47,16.5s-1.91,4.62-1.69,5.91c.75,2.3,1.61,4.56,2.6,6.77,0,0,5.2,2.02,5.75,1.47s10.77-3.18,10.77-3.18l.92,4.58-5.84,19.35,4.53,7.56,10.76,2.81,22.12,23.17,4.42,14.01-5.09,5.18-7.97,2.12-12.18-2.83,11.71-8.65-23.73-25.95-7.64-.27c-.52-.02-14.4,10.4-14.4,10.4l-36.21-13.09-6.85,5.12,3.98,6.6-10.72,1.24Z"/><g id="Raggruppa_18535"><path id="Tracciato_35153" class="cls-1" d="m41.05,87.57h19.14v2.45h-16.27v10.9h14.45v2.45h-14.45v14.37h-2.87v-30.17Zm22.19,8.37h2.45v5.11h.08c.59-1.66,1.69-3.1,3.15-4.1,1.42-.96,3.12-1.39,5.09-1.31v2.66c-1.12-.07-2.24.1-3.3.49-.96.36-1.83.91-2.56,1.63-.73.72-1.3,1.58-1.67,2.53-.4,1.01-.6,2.08-.59,3.17v11.62h-2.66v-21.81Zm13.35-8.32h2.66v4.23h-2.66v-4.23Zm0,8.32h2.66v21.81h-2.66v-21.81Zm25.44,21.81h-2.45v-3.93h-.08c-.66,1.41-1.72,2.59-3.06,3.38-1.35.79-2.89,1.2-4.46,1.18-1.2.03-2.4-.16-3.53-.57-.92-.34-1.73-.91-2.37-1.65-.63-.77-1.08-1.66-1.33-2.62-.29-1.12-.44-2.28-.42-3.44v-14.16h2.66v14.2c.06,1.97.51,3.47,1.37,4.48s2.35,1.52,4.46,1.52c1.03.03,2.04-.23,2.94-.74.83-.49,1.53-1.16,2.05-1.96.55-.86.95-1.81,1.18-2.81.25-1.06.38-2.14.38-3.23v-11.45h2.66v21.81Zm5.07-30.17h2.66v30.17h-2.66v-30.17Zm7.82.04h2.66v4.23h-2.66v-4.23Zm0,8.32h2.66v21.81h-2.66v-21.81Zm16.69-8.37h3.08l9.8,27h.08l9.72-27h3.04l-11.2,30.17h-3.34l-11.2-30.17Zm43.57,17.75c-.02-.99-.2-1.98-.53-2.92-.31-.9-.77-1.74-1.37-2.47-.59-.72-1.33-1.31-2.16-1.73-.89-.45-1.88-.67-2.87-.65-1.01-.02-2.01.2-2.92.65-.83.42-1.56,1.01-2.16,1.73-.61.75-1.09,1.59-1.42,2.49-.35.93-.58,1.9-.7,2.89h14.11Zm-14.11,2.24c0,1.01.15,2.02.42,3,.27.98.69,1.91,1.27,2.75.58.83,1.34,1.52,2.22,2.03,1,.56,2.13.83,3.27.8,1.94,0,3.47-.51,4.56-1.54,1.14-1.09,1.93-2.5,2.28-4.04h2.66c-.56,2.48-1.6,4.4-3.11,5.77s-3.64,2.05-6.4,2.05c-1.75,0-3.24-.31-4.48-.93-1.2-.59-2.24-1.45-3.04-2.51-.81-1.1-1.41-2.35-1.75-3.68-.39-1.44-.58-2.93-.57-4.42,0-1.43.19-2.85.57-4.23.36-1.33.95-2.58,1.75-3.7.8-1.09,1.84-1.99,3.04-2.62,1.24-.66,2.73-.99,4.48-.99s3.24.35,4.48,1.06c1.21.68,2.24,1.62,3.02,2.77.8,1.19,1.36,2.53,1.67,3.93.34,1.48.48,2.99.42,4.5h-16.78Zm20.33-11.62h2.66v3.76h.08c.26-.65.62-1.26,1.08-1.8.46-.55,1.01-1.02,1.63-1.39.63-.39,1.31-.68,2.03-.89.73-.21,1.48-.32,2.24-.32,1.52,0,2.8.2,3.83.59.95.34,1.8.92,2.47,1.67.64.76,1.09,1.67,1.31,2.64.27,1.15.39,2.33.38,3.51v14.03h-2.66v-13.61c0-.87-.08-1.74-.25-2.6-.15-.75-.45-1.46-.89-2.09-.44-.61-1.03-1.09-1.71-1.39-.85-.36-1.76-.54-2.68-.51-.98-.02-1.95.18-2.85.57-.81.37-1.54.9-2.13,1.56-.61.69-1.07,1.49-1.35,2.37-.32.96-.49,1.97-.51,2.98v12.72h-2.66v-21.81Zm38.41,9.38c-.02-.99-.2-1.98-.53-2.92-.31-.9-.77-1.74-1.37-2.47-.59-.72-1.33-1.31-2.16-1.73-.89-.45-1.88-.67-2.87-.65-1.01-.02-2.01.2-2.92.65-.83.42-1.56,1.01-2.16,1.73-.61.75-1.09,1.59-1.42,2.49-.35.93-.58,1.9-.7,2.89h14.11Zm-14.11,2.24c0,1.01.15,2.02.42,3,.27.98.69,1.91,1.27,2.75.58.83,1.34,1.52,2.22,2.03,1,.56,2.13.83,3.27.8,1.94,0,3.47-.51,4.56-1.54,1.14-1.09,1.93-2.5,2.28-4.04h2.66c-.56,2.48-1.6,4.4-3.11,5.77s-3.64,2.05-6.4,2.05c-1.75,0-3.24-.31-4.48-.93-1.2-.59-2.24-1.45-3.04-2.51-.81-1.1-1.41-2.35-1.75-3.68-.39-1.44-.58-2.93-.57-4.42,0-1.43.19-2.85.57-4.23.36-1.33.95-2.58,1.75-3.7.8-1.09,1.84-1.99,3.04-2.62,1.24-.66,2.73-.99,4.48-.99s3.24.35,4.48,1.06c1.21.68,2.24,1.62,3.02,2.77.8,1.19,1.36,2.53,1.67,3.93.34,1.48.48,2.99.42,4.5h-16.78Zm21.68,7.94h15v2.24h-18.21v-2.16l14.24-17.41h-13.27v-2.24h16.65v1.9l-14.41,17.66Zm18.3-27.89h2.66v4.23h-2.66v-4.23Zm0,8.32h2.66v21.81h-2.66v-21.81Zm7.52,6.68c.14-2.56,1.02-4.42,2.64-5.58,1.62-1.16,3.68-1.73,6.19-1.73.96,0,1.93.09,2.87.27.92.17,1.8.52,2.58,1.04.79.54,1.43,1.28,1.86,2.13.48.92.72,2.11.72,3.57v11.58c0,1.07.52,1.61,1.56,1.61.29,0,.58-.06.85-.17v2.24c-.31.06-.58.1-.82.13-.3.03-.61.05-.91.04-.56.02-1.11-.07-1.63-.27-.39-.16-.72-.44-.95-.78-.24-.36-.39-.77-.44-1.2-.07-.51-.11-1.03-.11-1.54h-.08c-.44.66-.93,1.29-1.46,1.88-.48.54-1.04,1.01-1.65,1.39-.65.4-1.35.69-2.09.87-.9.21-1.82.31-2.75.3-.96,0-1.92-.12-2.85-.38-.84-.23-1.63-.63-2.32-1.16-.67-.53-1.2-1.21-1.56-1.99-.4-.9-.59-1.87-.57-2.85,0-1.52.34-2.71,1.01-3.57.71-.88,1.63-1.56,2.68-1.96,1.21-.48,2.47-.79,3.76-.95,1.39-.18,2.81-.36,4.25-.53.49-.05.98-.13,1.46-.23.38-.08.75-.23,1.08-.44.29-.21.52-.51.66-.84.17-.46.25-.95.23-1.44.03-.76-.12-1.52-.44-2.22-.28-.56-.7-1.03-1.23-1.37-.55-.35-1.17-.59-1.82-.7-.73-.13-1.47-.19-2.22-.19-1.66,0-3.04.4-4.12,1.2-1.08.8-1.66,2.09-1.71,3.87h-2.66Zm14.2,3.21h-.08c-.22.35-.57.59-.97.68-.42.13-.84.23-1.27.3-1.13.2-2.29.37-3.49.53-1.11.14-2.21.37-3.28.7-.9.26-1.73.72-2.43,1.33-.63.58-.95,1.4-.95,2.47-.01.62.13,1.24.4,1.8.27.52.63.98,1.08,1.35.46.39.99.68,1.56.87.59.2,1.2.3,1.82.3.99,0,1.98-.15,2.92-.46.89-.29,1.72-.75,2.43-1.35.69-.6,1.25-1.33,1.65-2.16.42-.9.63-1.88.61-2.87v-3.47Zm46.02,11.92h-2.07l-.38-5.49h-.08c-.91,1.98-2.44,3.62-4.35,4.67-.91.5-1.88.87-2.89,1.1-1.05.24-2.12.36-3.19.36-2.37,0-4.44-.43-6.23-1.29-1.73-.81-3.25-1.99-4.46-3.46-1.2-1.49-2.11-3.2-2.66-5.03-.6-1.92-.89-3.93-.89-5.94,0-2.01.29-4.01.89-5.94.55-1.83,1.46-3.54,2.66-5.03,1.21-1.47,2.73-2.66,4.46-3.47,1.79-.86,3.87-1.29,6.23-1.29,1.52,0,3.03.2,4.48.63,1.37.4,2.65,1.04,3.78,1.9,1.12.86,2.07,1.93,2.79,3.15.78,1.34,1.3,2.81,1.54,4.33h-2.87c-.1-.93-.4-1.83-.87-2.64-.52-.92-1.19-1.74-1.99-2.43-.88-.76-1.89-1.37-2.98-1.8-1.24-.48-2.56-.72-3.89-.7-2,0-3.72.38-5.16,1.14-1.39.72-2.6,1.76-3.53,3.02-.93,1.29-1.62,2.73-2.03,4.27-.43,1.58-.65,3.2-.65,4.84,0,1.64.22,3.28.65,4.86.41,1.53,1.1,2.97,2.03,4.25.93,1.26,2.14,2.3,3.53,3.02,1.44.76,3.16,1.14,5.16,1.14,1.53.03,3.04-.25,4.46-.82,1.26-.52,2.39-1.3,3.32-2.3.92-1.01,1.61-2.21,2.03-3.51.46-1.43.68-2.93.64-4.44h-10.27v-2.45h12.8v15.34Zm5.07-30.13h2.66v4.23h-2.66v-4.23Zm0,8.32h2.66v21.81h-2.66v-21.81Zm25.44,21.81h-2.45v-3.93h-.08c-.66,1.41-1.72,2.59-3.06,3.38-1.35.79-2.89,1.2-4.46,1.18-1.2.03-2.4-.16-3.53-.57-.92-.34-1.73-.91-2.37-1.65-.63-.77-1.08-1.66-1.33-2.62-.29-1.12-.44-2.28-.42-3.44v-14.16h2.66v14.2c.06,1.97.51,3.47,1.37,4.48s2.35,1.52,4.46,1.52c1.03.03,2.04-.23,2.94-.74.83-.49,1.53-1.16,2.05-1.96.55-.86.95-1.81,1.18-2.81.25-1.06.38-2.14.38-3.23v-11.45h2.66v21.81Zm5.07-30.17h2.66v30.17h-2.66v-30.17Zm7.82.04h2.66v4.23h-2.66v-4.23Zm0,8.32h2.66v21.81h-2.66v-21.81Zm7.52,6.68c.14-2.56,1.02-4.42,2.64-5.58,1.62-1.16,3.68-1.73,6.19-1.73.96,0,1.93.09,2.87.27.92.17,1.8.52,2.58,1.04.79.54,1.43,1.28,1.86,2.13.48.92.72,2.11.72,3.57v11.58c0,1.07.52,1.61,1.56,1.61.29,0,.58-.06.85-.17v2.24c-.31.06-.58.1-.82.13-.3.03-.61.05-.91.04-.56.02-1.11-.07-1.63-.27-.39-.16-.72-.44-.95-.78-.24-.36-.39-.77-.44-1.2-.07-.51-.11-1.03-.11-1.54h-.08c-.44.66-.93,1.29-1.46,1.88-.48.54-1.04,1.01-1.65,1.39-.65.4-1.35.69-2.09.87-.9.21-1.82.31-2.75.3-.96,0-1.92-.12-2.85-.38-.84-.23-1.63-.63-2.32-1.16-.67-.53-1.2-1.21-1.56-1.99-.4-.9-.59-1.87-.57-2.85,0-1.52.34-2.71,1.01-3.57.71-.88,1.63-1.56,2.68-1.96,1.21-.48,2.47-.79,3.76-.95,1.39-.18,2.81-.36,4.25-.53.49-.05.98-.13,1.46-.23.38-.08.75-.23,1.08-.44.29-.21.52-.51.65-.85.17-.46.25-.95.23-1.44.03-.76-.12-1.52-.44-2.22-.28-.56-.7-1.03-1.23-1.37-.55-.35-1.17-.59-1.82-.7-.73-.13-1.47-.19-2.22-.19-1.66,0-3.04.4-4.12,1.2-1.08.8-1.66,2.09-1.71,3.87h-2.66Zm14.2,3.21h-.08c-.22.35-.57.59-.97.68-.42.13-.84.23-1.27.3-1.13.2-2.29.37-3.49.53-1.11.14-2.21.37-3.27.7-.9.26-1.73.72-2.43,1.33-.63.58-.95,1.4-.95,2.47-.01.62.13,1.24.4,1.8.27.52.63.98,1.08,1.35.46.39.99.68,1.56.87.59.2,1.2.3,1.82.3.99,0,1.98-.15,2.92-.46.89-.29,1.72-.75,2.43-1.35.69-.6,1.25-1.33,1.65-2.16.42-.9.63-1.88.61-2.87v-3.47Z"/><path id="Tracciato_35151" class="cls-1" d="m44.79,57.49h9.89c2,0,3.62-.51,4.86-1.52,1.24-1.01,1.86-2.56,1.86-4.65s-.62-3.63-1.86-4.65c-1.24-1.01-2.86-1.52-4.86-1.52h-9.89v12.34Zm-2.87-14.79h13.4c1.25-.02,2.49.18,3.68.57,1.05.35,2.02.93,2.83,1.69.8.76,1.42,1.69,1.82,2.73.44,1.16.65,2.39.63,3.63.02,1.24-.2,2.47-.63,3.63-.4,1.03-1.02,1.96-1.82,2.73-.81.76-1.78,1.34-2.83,1.69-1.19.39-2.43.59-3.68.57h-10.52v12.93h-2.87v-30.17Zm35.33,9.97c-1.16-.03-2.31.25-3.34.8-.94.52-1.76,1.24-2.39,2.11-.65.9-1.13,1.91-1.44,2.98-.65,2.22-.65,4.58,0,6.8.3,1.07.79,2.08,1.44,2.98.63.87,1.45,1.59,2.39,2.11,2.1,1.07,4.58,1.07,6.68,0,.94-.52,1.76-1.24,2.39-2.11.65-.9,1.13-1.91,1.44-2.98.65-2.22.65-4.58,0-6.8-.3-1.07-.79-2.08-1.44-2.98-.63-.87-1.45-1.59-2.39-2.11-1.02-.55-2.17-.83-3.34-.8Zm0-2.24c1.52-.03,3.03.29,4.42.93,1.24.59,2.35,1.44,3.23,2.49.9,1.08,1.57,2.33,1.99,3.68.45,1.43.68,2.93.68,4.44,0,1.51-.22,3.02-.68,4.46-.42,1.34-1.09,2.58-1.99,3.66-.89,1.05-1.99,1.9-3.23,2.49-1.38.64-2.89.96-4.42.93-1.52.03-3.03-.29-4.42-.93-1.24-.59-2.35-1.44-3.23-2.49-.89-1.08-1.57-2.32-1.99-3.66-.46-1.44-.69-2.95-.68-4.46,0-1.51.22-3,.68-4.44.42-1.34,1.09-2.59,1.99-3.68.89-1.05,1.99-1.9,3.23-2.49,1.38-.64,2.89-.96,4.42-.93h0Zm14.28.63h2.45v5.11h.08c.59-1.66,1.69-3.1,3.15-4.1,1.42-.96,3.12-1.39,5.09-1.31v2.66c-1.12-.07-2.24.1-3.3.49-.96.36-1.83.91-2.56,1.63-.73.72-1.3,1.58-1.67,2.53-.4,1.01-.6,2.08-.59,3.17v11.62h-2.66v-21.81Zm17.54,0h4.44v2.24h-4.44v14.71c-.03.7.09,1.4.36,2.05.24.49.84.77,1.8.82.76,0,1.52-.04,2.28-.13v2.28c-.39,0-.79.01-1.18.04-.39.03-.79.04-1.18.04-1.77,0-3.01-.35-3.72-1.06-.7-.7-1.04-1.99-1.01-3.85v-14.92h-3.8v-2.24h3.8v-6.55h2.66v6.55Zm29.24,1.61c-1.16-.03-2.31.25-3.34.8-.94.52-1.76,1.24-2.39,2.11-.65.9-1.13,1.91-1.44,2.98-.65,2.22-.65,4.58,0,6.8.3,1.07.79,2.08,1.44,2.98.63.87,1.45,1.59,2.39,2.11,2.1,1.07,4.58,1.07,6.68,0,.94-.52,1.76-1.24,2.39-2.11.65-.9,1.13-1.91,1.44-2.98.65-2.22.65-4.58,0-6.8-.3-1.07-.79-2.08-1.44-2.98-.63-.87-1.45-1.59-2.39-2.11-1.02-.55-2.18-.83-3.34-.8h0Zm0-2.24c1.52-.03,3.03.29,4.42.93,1.24.59,2.35,1.44,3.23,2.49.9,1.08,1.57,2.33,1.99,3.68.45,1.43.68,2.93.68,4.44,0,1.51-.22,3.02-.68,4.46-.42,1.34-1.09,2.58-1.99,3.66-.89,1.05-1.99,1.9-3.23,2.49-2.81,1.24-6.02,1.24-8.83,0-1.24-.59-2.35-1.44-3.23-2.49-.89-1.08-1.57-2.32-1.99-3.66-.46-1.44-.69-2.95-.68-4.46,0-1.51.22-3,.68-4.44.42-1.34,1.09-2.59,1.99-3.68.89-1.05,1.99-1.9,3.23-2.49,1.38-.64,2.89-.96,4.42-.93h0Zm22.69,2.87h-4.31v19.57h-2.66v-19.57h-3.72v-2.24h3.72v-1.99c0-.86.07-1.73.21-2.58.12-.73.39-1.42.8-2.03.41-.58.97-1.03,1.63-1.31.84-.34,1.74-.5,2.64-.46.39,0,.76.01,1.1.04.34.03.72.07,1.14.13v2.28c-.37-.06-.7-.11-1.01-.15-.31-.04-.62-.06-.93-.06-.58-.03-1.16.08-1.69.34-.38.21-.68.52-.87.91-.19.42-.3.87-.32,1.33-.03.51-.04,1.06-.04,1.65v1.9h4.31v2.24Zm11.54-10.61h23.92v2.45h-10.52v27.72h-2.87v-27.72h-10.52v-2.45Zm26.24,8.37h2.45v5.11h.08c.59-1.66,1.69-3.1,3.15-4.1,1.42-.96,3.12-1.39,5.09-1.31v2.66c-1.12-.07-2.24.1-3.3.49-.96.36-1.83.91-2.56,1.63-.73.72-1.3,1.58-1.67,2.53-.4,1.01-.6,2.08-.59,3.17v11.62h-2.66v-21.81Zm13.35-8.32h2.66v4.23h-2.66v-4.23Zm0,8.32h2.66v21.81h-2.66v-21.81Zm23.45,9.38c-.02-.99-.2-1.98-.53-2.92-.31-.9-.77-1.74-1.37-2.47-.59-.72-1.33-1.31-2.16-1.73-.89-.45-1.88-.67-2.87-.65-1.01-.02-2.01.2-2.92.65-.83.42-1.56,1.01-2.16,1.73-.61.75-1.09,1.59-1.42,2.49-.35.93-.58,1.91-.7,2.9h14.11Zm-14.11,2.24c0,1.01.15,2.02.42,3,.27.98.69,1.91,1.27,2.75.58.83,1.34,1.52,2.22,2.03,1,.56,2.13.83,3.27.8,1.94,0,3.47-.51,4.56-1.54,1.14-1.09,1.93-2.5,2.28-4.04h2.66c-.56,2.48-1.6,4.4-3.11,5.77s-3.64,2.05-6.4,2.05c-1.75,0-3.24-.31-4.48-.93-1.2-.59-2.24-1.45-3.04-2.51-.81-1.1-1.41-2.35-1.75-3.68-.39-1.44-.58-2.93-.57-4.42,0-1.43.19-2.85.57-4.23.36-1.33.95-2.58,1.75-3.7.8-1.09,1.84-1.99,3.04-2.62,1.24-.66,2.73-.99,4.48-.99s3.24.35,4.48,1.06c1.21.68,2.24,1.62,3.02,2.77.8,1.19,1.36,2.53,1.67,3.93.34,1.48.48,2.99.42,4.5h-16.78Zm33.43-5.24c0-.74-.18-1.47-.51-2.13-.3-.59-.72-1.1-1.25-1.5-.54-.4-1.15-.7-1.8-.87-.7-.19-1.43-.28-2.16-.27-.6,0-1.21.07-1.8.19-.59.12-1.15.34-1.67.64-.5.29-.92.69-1.23,1.17-.32.54-.49,1.16-.46,1.78-.02.54.14,1.07.44,1.51.3.42.68.77,1.12,1.04.46.29.96.53,1.48.7.54.18,1.03.33,1.48.45l3.55.8c.77.12,1.53.32,2.26.61.72.28,1.39.67,1.99,1.16.59.49,1.07,1.09,1.42,1.77.38.77.57,1.62.55,2.49.03,1.06-.25,2.11-.8,3.01-.52.82-1.22,1.51-2.05,2.02-.87.53-1.82.92-2.81,1.14-1.01.24-2.05.36-3.08.36-2.56,0-4.64-.61-6.23-1.84s-2.5-3.18-2.73-5.85h2.66c.11,1.8.77,3.16,1.96,4.08,1.2.92,2.68,1.37,4.46,1.37.67,0,1.33-.08,1.99-.21.68-.13,1.34-.38,1.94-.72.57-.32,1.07-.76,1.46-1.29.39-.56.59-1.24.57-1.92.01-.56-.12-1.12-.4-1.61-.27-.45-.64-.83-1.08-1.12-.48-.31-1-.56-1.54-.74-.58-.2-1.16-.37-1.75-.51l-3.42-.76c-.82-.21-1.62-.47-2.41-.78-.69-.27-1.34-.64-1.92-1.1-.55-.43-.99-.98-1.29-1.61-.33-.74-.49-1.54-.46-2.35-.03-.99.23-1.98.74-2.83.48-.78,1.14-1.43,1.92-1.9.82-.49,1.71-.85,2.64-1.06.95-.22,1.92-.34,2.9-.34,1.04,0,2.07.13,3.06.42.91.26,1.76.71,2.49,1.31.72.6,1.31,1.35,1.71,2.2.45.97.69,2.02.72,3.09h-2.66Zm11.49-6.38h4.44v2.24h-4.44v14.71c-.03.7.09,1.4.36,2.05.24.49.84.77,1.8.82.76,0,1.52-.04,2.28-.13v2.28c-.39,0-.79.01-1.18.04s-.79.04-1.18.04c-1.77,0-3.01-.35-3.72-1.06-.7-.7-1.04-1.99-1.01-3.85v-14.92h-3.8v-2.24h3.8v-6.55h2.66v6.55Zm23.96,9.38c-.02-.99-.2-1.98-.53-2.92-.31-.9-.77-1.74-1.37-2.47-.59-.72-1.33-1.31-2.16-1.73-.89-.45-1.88-.67-2.87-.65-1.01-.02-2.01.2-2.92.65-.83.42-1.56,1.01-2.16,1.73-.61.75-1.09,1.59-1.42,2.49-.35.93-.58,1.91-.7,2.89h14.11Zm-14.11,2.24c0,1.01.15,2.02.42,3,.27.98.69,1.91,1.27,2.75.58.83,1.34,1.52,2.22,2.03,1,.56,2.13.83,3.28.8,1.94,0,3.47-.51,4.56-1.54,1.14-1.09,1.93-2.5,2.28-4.04h2.66c-.56,2.48-1.6,4.4-3.11,5.77-1.51,1.37-3.64,2.05-6.4,2.05-1.75,0-3.24-.31-4.48-.93-1.2-.59-2.24-1.45-3.04-2.51-.81-1.1-1.41-2.35-1.75-3.68-.39-1.44-.58-2.93-.57-4.42,0-1.43.19-2.85.57-4.23.36-1.33.95-2.58,1.75-3.7.8-1.09,1.84-1.99,3.04-2.62,1.24-.66,2.73-.99,4.48-.99s3.24.35,4.48,1.06c1.21.68,2.24,1.62,3.02,2.77.8,1.19,1.36,2.53,1.67,3.93.34,1.48.48,2.99.42,4.5h-16.78Z"/><path id="Tracciato_35152" class="cls-10" d="m314.65,69.04c0,.24,0,.48.02.72,0,.22.05.44.11.65.06.19.17.35.33.47.19.13.42.19.65.18.31,0,.61-.04.91-.1v1.08c-.17.04-.34.07-.51.1-.17.02-.34.03-.51.03-.41.02-.81-.05-1.19-.2-.27-.11-.5-.29-.67-.52-.16-.23-.26-.49-.31-.77-.06-.32-.08-.64-.08-.96v-.88h-.07c-.2.52-.49,1-.85,1.42-.39.46-.85.86-1.35,1.19-.56.36-1.17.64-1.81.82-.72.2-1.47.3-2.22.29-.74,0-1.48-.08-2.2-.24-.65-.15-1.26-.42-1.8-.8-.51-.37-.93-.87-1.19-1.45-.3-.71-.45-1.47-.42-2.24-.04-.84.16-1.67.57-2.4.36-.6.87-1.11,1.47-1.47.62-.37,1.29-.63,1.99-.77.71-.15,1.42-.26,2.14-.33,1.39-.09,2.48-.19,3.25-.31.6-.06,1.19-.25,1.71-.56.35-.22.6-.57.69-.98.1-.54.14-1.1.13-1.65-.02-.29-.09-.57-.2-.83-.16-.41-.4-.78-.7-1.09-.4-.41-.89-.74-1.42-.96-.75-.3-1.55-.44-2.35-.41-1.5,0-2.72.38-3.64,1.14-.92.76-1.43,1.87-1.52,3.33h-1.24c.09-1.85.68-3.24,1.78-4.16,1.1-.92,2.64-1.39,4.62-1.39.72,0,1.44.06,2.15.2.66.12,1.3.35,1.88.68.55.32,1.01.78,1.34,1.34.36.66.54,1.4.51,2.15v9.68Zm-1.24-6.4c-.27.3-.62.52-1.01.64-.48.15-.98.26-1.49.31-.55.07-1.14.12-1.75.16-.61.04-1.22.11-1.83.2-1.48.17-2.62.55-3.41,1.13-.79.58-1.19,1.5-1.19,2.76-.02.98.38,1.92,1.09,2.6.73.71,1.83,1.06,3.31,1.06s2.54-.26,3.36-.77c.75-.44,1.4-1.04,1.89-1.76.4-.58.68-1.24.83-1.93.09-.41.15-.83.18-1.26v-3.13Zm5.52-7.25h1.24v3.59h.07c.21-.61.52-1.18.93-1.68.4-.49.87-.91,1.4-1.26.54-.35,1.13-.61,1.75-.78.63-.17,1.28-.26,1.93-.26.85-.02,1.69.1,2.5.36.62.2,1.19.52,1.68.95.42.37.77.82,1.03,1.32.24.47.42.97.54,1.49.11.48.17.96.2,1.45.02.47.03.88.03,1.22v10.38h-1.24v-10.61c0-.53-.04-1.06-.1-1.58-.07-.63-.26-1.24-.57-1.8-.35-.61-.84-1.12-1.44-1.49-.64-.41-1.53-.62-2.66-.62-.87-.01-1.74.16-2.53.52-.74.34-1.39.83-1.91,1.45-.54.65-.95,1.41-1.19,2.22-.28.91-.42,1.87-.41,2.82v9.08h-1.24v-16.78Zm30.23,13.19h-.07c-.59,1.21-1.49,2.24-2.61,2.99-1.04.66-2.32,1-3.82,1-1.13.03-2.25-.22-3.26-.72-.89-.46-1.66-1.12-2.25-1.93-.6-.84-1.05-1.79-1.31-2.79-.29-1.08-.43-2.2-.42-3.31,0-1.17.15-2.34.46-3.48.27-1.01.74-1.96,1.39-2.79.63-.79,1.43-1.43,2.33-1.86,1.03-.48,2.16-.71,3.3-.69.67,0,1.34.09,1.99.28.64.18,1.25.45,1.81.8.56.35,1.05.79,1.45,1.31.42.53.74,1.12.95,1.76h.07v-10.28h1.24v23.31h-1.24v-3.59Zm-6.24,2.9c.96.03,1.91-.2,2.76-.65.76-.43,1.42-1.02,1.93-1.73.52-.75.91-1.58,1.14-2.46.25-.92.38-1.87.38-2.82,0-.96-.12-1.93-.38-2.86-.23-.88-.61-1.72-1.13-2.48-.5-.73-1.17-1.33-1.94-1.75-.86-.45-1.82-.68-2.79-.65-.99-.03-1.96.19-2.84.64-.77.41-1.44,1-1.94,1.71-.53.75-.9,1.59-1.11,2.48-.23.95-.35,1.93-.34,2.91,0,.96.12,1.93.38,2.86.23.88.62,1.72,1.14,2.46.51.71,1.17,1.3,1.94,1.71.87.44,1.83.66,2.81.64Z"/><path id="Tracciato_35154-2" class="cls-10" d="m41.12,160.44h17.88v-3.05h-14.37v-20.59h-3.51v23.64Zm19.44-11.82c0,6.06,3.64,12.42,13.14,12.42s13.14-6.36,13.14-12.42-3.64-12.42-13.14-12.42-13.14,6.36-13.14,12.42Zm22.78,0c0,6.26-4.24,9.37-9.63,9.37s-9.64-3.11-9.64-9.37,4.24-9.37,9.63-9.37,9.63,3.11,9.63,9.37h0Zm20.26,2.12h7.75c-.36,4.2-3.71,7.25-8.84,7.25-4.93,0-9.2-2.58-9.2-9.27,0-5.03,2.78-9.47,9.04-9.47,4.47,0,6.92,1.72,8.01,5h3.71c-1.49-6.52-7.02-8.05-11.89-8.05-6.13,0-12.38,3.68-12.38,12.81,0,5.2,3.01,12.02,12.48,12.02,5,0,7.52-2.15,9.07-3.97l.6,3.38h2.52v-12.75h-10.86v3.05Zm16.16,9.7h3.51v-23.64h-3.51v23.64Zm6.89-7.78c0,6.52,5.53,8.38,10.86,8.38,4.77,0,10.16-1.72,10.16-7.75,0-4.83-5.26-5.73-7.12-6.06l-5.79-1c-2.91-.5-3.87-1.66-3.87-3.11,0-2.78,2.91-3.87,5.5-3.87,5.66,0,6.72,2.52,7.02,4.37h3.51c-.33-5.69-5.33-7.42-10.07-7.42-6.06,0-9.47,2.88-9.47,7.18,0,4.6,4.21,5.73,7.02,6.19l5.36.9c2.71.46,4.4,1.36,4.4,3.51,0,2.58-2.65,4.01-6.39,4.01s-7.55-1.09-7.62-5.33h-3.51Zm30.53,7.78h3.51v-20.59h8.94v-3.05h-21.39v3.05h8.94v20.59Zm15.33,0h3.51v-23.64h-3.51v23.64Zm31.85-15.13c-.6-7.09-7.12-9.11-11.85-9.11-8.08,0-12.38,5.46-12.38,12.35,0,9.2,6.46,12.48,12.42,12.48,6.75,0,11.26-4.4,11.82-9.63h-3.51c-.99,4.6-4.14,6.59-8.28,6.59-6.52,0-8.94-4.6-8.94-9.07,0-6.46,3.54-9.67,9.14-9.67,4.97,0,7.55,2.78,8.08,6.06h3.51Zm2.02,7.35c0,6.52,5.53,8.38,10.86,8.38,4.77,0,10.16-1.72,10.16-7.75,0-4.83-5.26-5.73-7.12-6.06l-5.79-.99c-2.91-.5-3.87-1.65-3.87-3.11,0-2.78,2.91-3.87,5.5-3.87,5.66,0,6.72,2.52,7.02,4.37h3.51c-.33-5.69-5.33-7.42-10.07-7.42-6.06,0-9.47,2.88-9.47,7.18,0,4.6,4.2,5.73,7.02,6.19l5.36.9c2.71.46,4.4,1.36,4.4,3.51,0,2.58-2.65,4.01-6.39,4.01s-7.55-1.09-7.62-5.33h-3.51Zm33.14,0c0,6.52,5.53,8.38,10.86,8.38,4.77,0,10.16-1.72,10.16-7.75,0-4.83-5.26-5.73-7.12-6.06l-5.79-.99c-2.91-.5-3.87-1.65-3.87-3.11,0-2.78,2.91-3.87,5.5-3.87,5.66,0,6.72,2.52,7.02,4.37h3.51c-.33-5.69-5.33-7.42-10.07-7.42-6.06,0-9.47,2.88-9.47,7.18,0,4.6,4.2,5.73,7.02,6.19l5.36.9c2.71.46,4.4,1.36,4.4,3.51,0,2.58-2.65,4.01-6.39,4.01s-7.55-1.09-7.62-5.33h-3.51Zm33.54-5.1l-7.71-10.76h-4.47l10.36,13.91v9.73h3.51v-9.9l10.43-13.74h-4.27l-7.85,10.76Zm12.45,5.1c0,6.52,5.53,8.38,10.86,8.38,4.77,0,10.16-1.72,10.16-7.75,0-4.83-5.26-5.73-7.12-6.06l-5.79-.99c-2.91-.5-3.87-1.66-3.87-3.11,0-2.78,2.91-3.87,5.5-3.87,5.66,0,6.72,2.52,7.02,4.37h3.51c-.33-5.69-5.33-7.42-10.07-7.42-6.06,0-9.47,2.88-9.47,7.18,0,4.6,4.2,5.73,7.02,6.19l5.36.9c2.71.46,4.4,1.36,4.4,3.51,0,2.58-2.65,4.01-6.39,4.01s-7.55-1.09-7.62-5.33h-3.51Zm30.53,7.78h3.51v-20.59h8.94v-3.05h-21.39v3.05h8.94v20.59Zm15.03,0h19.34v-3.05h-15.83v-7.65h15.03v-3.05h-15.03v-6.85h15.5v-3.05h-19v23.64Zm37.61-4.04l-9.37-19.6h-4.93v23.64h3.51v-19.2h.07l9.17,19.2h3.11l9.2-19.6h.07v19.6h3.51v-23.64h-4.87l-9.47,19.6Z"/></g></g></g></svg>