<svg xmlns="http://www.w3.org/2000/svg" xmlns:xlink="http://www.w3.org/1999/xlink" width="498.697" height="203.313"
    viewBox="0 0 498.697 203.313">
    <defs>
        <filter id="a" x="36.361" y="90.574" width="462.336" height="73.5" filterUnits="userSpaceOnUse">
            <feOffset dy="3" input="SourceAlpha" />
            <feGaussianBlur stdDeviation="7" result="b" />
            <feFlood flood-opacity="0.161" />
            <feComposite operator="in" in2="b" />
            <feComposite in="SourceGraphic" />
        </filter>
    </defs>
    <g transform="translate(2761 17352.203)">
        <path
            d="M1361.918,1253.743l-9.192-22.777-22.535-3.435-16.01,7.176-30.241-25.591-2.963-22.46,11.264-6.557v-11.229l-9.783-7.8-15.421-12.167,9.486-14.041,32.323-26.212,13.934-13.111-3.854-14.035,53.962,12.164,53.068,1.871,18.082,5-3.494,9.718-40.35,26.989v12.067l.675,6.971,4.861,2.4,3.373-2.4h3.911l14.036,6.381,8.5,1.988s.271,3.278,0,3.7-2.163,3.972-2.163,3.972L1414.5,1189.5s-1.751,4.684-1.484,5.967a69.154,69.154,0,0,0,2.836,6.681s5.265,1.838,5.8,1.27,10.66-3.552,10.66-3.552l1.076,4.549-5.164,19.551,4.793,7.4,10.857,2.436,22.923,22.387,4.912,13.847-4.912,5.355-7.893,2.4-12.279-2.4,11.4-9.054-24.635-25.109h-7.645c-.525,0-14.033,10.9-14.033,10.9l-36.661-11.817-6.669,5.357,4.207,6.46Z"
            transform="matrix(0.999, 0.035, -0.035, 0.999, -3982.672, -18477.264)" fill="#1e83d6" opacity="0.37" />
        <path
            d="M4.032-39.984H29.4v3.248H7.84v14.448H26.992v3.248H7.84V0H4.032ZM31.864-28.9h3.248v6.776h.112A11.091,11.091,0,0,1,39.4-27.552a10.922,10.922,0,0,1,6.748-1.736v3.528a10.65,10.65,0,0,0-4.368.644,9.83,9.83,0,0,0-3.388,2.156,9.67,9.67,0,0,0-2.212,3.36,11.2,11.2,0,0,0-.784,4.2V0H31.864ZM47.992-39.928H51.52v5.6H47.992Zm0,11.032H51.52V0H47.992ZM80.136,0H76.888V-5.208h-.112a10.182,10.182,0,0,1-4.06,4.48A11.417,11.417,0,0,1,66.808.84,12.852,12.852,0,0,1,62.132.084,7.663,7.663,0,0,1,59-2.1a8.985,8.985,0,0,1-1.764-3.472,17.267,17.267,0,0,1-.56-4.564V-28.9H60.2V-10.08a9.4,9.4,0,0,0,1.82,5.936q1.708,2.016,5.908,2.016a7.487,7.487,0,0,0,3.892-.98,8.229,8.229,0,0,0,2.716-2.6A11.727,11.727,0,0,0,76.1-9.436a18.293,18.293,0,0,0,.5-4.284V-28.9h3.528Zm5.152-39.984h3.528V0H85.288Zm8.792.056h3.528v5.6H94.08Zm0,11.032h3.528V0H94.08Zm18.984-11.088h4.088L130.144-4.2h.112l12.88-35.784h4.032L132.328,0H127.9Zm56.168,23.52a12.746,12.746,0,0,0-.7-3.864,10.578,10.578,0,0,0-1.82-3.276,9.019,9.019,0,0,0-2.856-2.3,8.174,8.174,0,0,0-3.808-.868,8.3,8.3,0,0,0-3.864.868,9.02,9.02,0,0,0-2.856,2.3,11.439,11.439,0,0,0-1.876,3.3,16.2,16.2,0,0,0-.924,3.836Zm-18.7,2.968a14.809,14.809,0,0,0,.56,3.976,12.027,12.027,0,0,0,1.68,3.64,9.067,9.067,0,0,0,2.94,2.688,8.451,8.451,0,0,0,4.34,1.064A8.5,8.5,0,0,0,166.1-4.172,10.754,10.754,0,0,0,169.12-9.52h3.528a14.244,14.244,0,0,1-4.116,7.644q-3,2.716-8.484,2.716a13.152,13.152,0,0,1-5.936-1.232,11.186,11.186,0,0,1-4.032-3.332A14.372,14.372,0,0,1,147.756-8.6,22.15,22.15,0,0,1,147-14.448a20.988,20.988,0,0,1,.756-5.6,15.039,15.039,0,0,1,2.324-4.9,11.743,11.743,0,0,1,4.032-3.472,12.447,12.447,0,0,1,5.936-1.316,11.834,11.834,0,0,1,5.936,1.4,11.819,11.819,0,0,1,4,3.668A15.2,15.2,0,0,1,172.2-19.46a22.855,22.855,0,0,1,.56,5.964ZM175.9-28.9h3.528v4.984h.112a8.413,8.413,0,0,1,1.428-2.38,8.907,8.907,0,0,1,2.156-1.848,10.873,10.873,0,0,1,2.688-1.176,10.656,10.656,0,0,1,2.968-.42,14.242,14.242,0,0,1,5.068.784,8.018,8.018,0,0,1,3.276,2.212,8.242,8.242,0,0,1,1.736,3.5,19.7,19.7,0,0,1,.5,4.648V0h-3.528V-18.032a16.711,16.711,0,0,0-.336-3.444,7.291,7.291,0,0,0-1.176-2.772,5.707,5.707,0,0,0-2.268-1.848,8.336,8.336,0,0,0-3.556-.672,8.991,8.991,0,0,0-3.78.756,8.474,8.474,0,0,0-2.828,2.072A8.947,8.947,0,0,0,180.1-20.8a13.349,13.349,0,0,0-.672,3.948V0H175.9Zm49.336,12.432a12.746,12.746,0,0,0-.7-3.864,10.578,10.578,0,0,0-1.82-3.276,9.019,9.019,0,0,0-2.856-2.3,8.174,8.174,0,0,0-3.808-.868,8.3,8.3,0,0,0-3.864.868,9.02,9.02,0,0,0-2.856,2.3,11.439,11.439,0,0,0-1.876,3.3,16.2,16.2,0,0,0-.924,3.836Zm-18.7,2.968a14.809,14.809,0,0,0,.56,3.976,12.027,12.027,0,0,0,1.68,3.64,9.067,9.067,0,0,0,2.94,2.688,8.451,8.451,0,0,0,4.34,1.064A8.5,8.5,0,0,0,222.1-4.172,10.754,10.754,0,0,0,225.12-9.52h3.528a14.244,14.244,0,0,1-4.116,7.644q-3,2.716-8.484,2.716a13.152,13.152,0,0,1-5.936-1.232,11.186,11.186,0,0,1-4.032-3.332A14.372,14.372,0,0,1,203.756-8.6,22.15,22.15,0,0,1,203-14.448a20.988,20.988,0,0,1,.756-5.6,15.039,15.039,0,0,1,2.324-4.9,11.743,11.743,0,0,1,4.032-3.472,12.447,12.447,0,0,1,5.936-1.316,11.834,11.834,0,0,1,5.936,1.4,11.819,11.819,0,0,1,4,3.668A15.2,15.2,0,0,1,228.2-19.46a22.855,22.855,0,0,1,.56,5.964Zm27.16,10.528h19.88V0H229.432V-2.856L248.3-25.928H230.72V-28.9h22.064v2.52Zm22.68-36.96H259.9v5.6h-3.528Zm0,11.032H259.9V0h-3.528Zm8.4,8.848q.28-5.1,3.5-7.392a13.792,13.792,0,0,1,8.2-2.3,20.238,20.238,0,0,1,3.808.364A9.2,9.2,0,0,1,283.7-28a7.473,7.473,0,0,1,2.464,2.828,10.2,10.2,0,0,1,.952,4.732V-5.1a1.857,1.857,0,0,0,2.072,2.128,3,3,0,0,0,1.12-.224V-.224q-.616.112-1.092.168a10.632,10.632,0,0,1-1.2.056,5.339,5.339,0,0,1-2.156-.364,2.893,2.893,0,0,1-1.26-1.036A3.887,3.887,0,0,1,284-3a13.7,13.7,0,0,1-.14-2.044h-.112a23.573,23.573,0,0,1-1.932,2.492A10.25,10.25,0,0,1,279.636-.7,9.514,9.514,0,0,1,276.864.448a15.1,15.1,0,0,1-3.64.392,13.7,13.7,0,0,1-3.78-.5,8.848,8.848,0,0,1-3.08-1.54,7.231,7.231,0,0,1-2.072-2.632,8.754,8.754,0,0,1-.756-3.78,7.471,7.471,0,0,1,1.344-4.732,8.458,8.458,0,0,1,3.556-2.6,20.284,20.284,0,0,1,4.984-1.26q2.772-.364,5.628-.7a16.793,16.793,0,0,0,1.932-.308,4.014,4.014,0,0,0,1.428-.588,2.526,2.526,0,0,0,.868-1.12,4.949,4.949,0,0,0,.308-1.9,6.436,6.436,0,0,0-.588-2.94,4.649,4.649,0,0,0-1.624-1.82,6.548,6.548,0,0,0-2.408-.924,16.276,16.276,0,0,0-2.94-.252,8.931,8.931,0,0,0-5.46,1.6q-2.156,1.6-2.268,5.124Zm18.816,4.256h-.112a2.022,2.022,0,0,1-1.288.9,13.145,13.145,0,0,1-1.68.392q-2.24.392-4.62.7a25.337,25.337,0,0,0-4.34.924,8.475,8.475,0,0,0-3.22,1.764,4.207,4.207,0,0,0-1.26,3.276,5.138,5.138,0,0,0,.532,2.38,5.775,5.775,0,0,0,1.428,1.792A6.234,6.234,0,0,0,271.1-2.52a7.567,7.567,0,0,0,2.408.392,12.138,12.138,0,0,0,3.864-.616,9.507,9.507,0,0,0,3.22-1.792,8.7,8.7,0,0,0,2.184-2.856,8.641,8.641,0,0,0,.812-3.808ZM341.432,0h-2.744l-.5-7.28h-.112a13.659,13.659,0,0,1-2.492,3.668,13.6,13.6,0,0,1-3.276,2.52A15.084,15.084,0,0,1,328.468.364,18.581,18.581,0,0,1,324.24.84a18.872,18.872,0,0,1-8.26-1.708,17,17,0,0,1-5.908-4.592,19.668,19.668,0,0,1-3.528-6.664,26.332,26.332,0,0,1-1.176-7.868,26.332,26.332,0,0,1,1.176-7.868,19.668,19.668,0,0,1,3.528-6.664,17,17,0,0,1,5.908-4.592,18.872,18.872,0,0,1,8.26-1.708,20.553,20.553,0,0,1,5.936.84,15.633,15.633,0,0,1,5.012,2.52,14.472,14.472,0,0,1,3.7,4.172,16.637,16.637,0,0,1,2.044,5.74H337.12a8.976,8.976,0,0,0-1.148-3.5,12.175,12.175,0,0,0-2.632-3.22,13.569,13.569,0,0,0-3.948-2.38,13.693,13.693,0,0,0-5.152-.924,14.421,14.421,0,0,0-6.832,1.512,13.536,13.536,0,0,0-4.676,4,17.215,17.215,0,0,0-2.688,5.656,24.132,24.132,0,0,0-.868,6.412,24.031,24.031,0,0,0,.868,6.44,17.251,17.251,0,0,0,2.688,5.628,13.536,13.536,0,0,0,4.676,4,14.421,14.421,0,0,0,6.832,1.512A15.153,15.153,0,0,0,330.148-3.5a12.32,12.32,0,0,0,4.4-3.052,12.782,12.782,0,0,0,2.688-4.648,17.513,17.513,0,0,0,.84-5.88H324.464v-3.248h16.968Zm5.152-39.928h3.528v5.6h-3.528Zm0,11.032h3.528V0h-3.528ZM378.728,0H375.48V-5.208h-.112a10.182,10.182,0,0,1-4.06,4.48A11.417,11.417,0,0,1,365.4.84a12.852,12.852,0,0,1-4.676-.756A7.663,7.663,0,0,1,357.588-2.1a8.986,8.986,0,0,1-1.764-3.472,17.266,17.266,0,0,1-.56-4.564V-28.9h3.528V-10.08a9.4,9.4,0,0,0,1.82,5.936q1.708,2.016,5.908,2.016a7.487,7.487,0,0,0,3.892-.98,8.228,8.228,0,0,0,2.716-2.6A11.727,11.727,0,0,0,374.7-9.436a18.293,18.293,0,0,0,.5-4.284V-28.9h3.528Zm5.152-39.984h3.528V0H383.88Zm8.792.056H396.2v5.6h-3.528Zm0,11.032H396.2V0h-3.528Zm8.4,8.848q.28-5.1,3.5-7.392a13.792,13.792,0,0,1,8.2-2.3,20.238,20.238,0,0,1,3.808.364A9.2,9.2,0,0,1,420-28a7.473,7.473,0,0,1,2.464,2.828,10.2,10.2,0,0,1,.952,4.732V-5.1a1.857,1.857,0,0,0,2.072,2.128,3,3,0,0,0,1.12-.224V-.224q-.616.112-1.092.168a10.631,10.631,0,0,1-1.2.056,5.339,5.339,0,0,1-2.156-.364A2.893,2.893,0,0,1,420.9-1.4a3.887,3.887,0,0,1-.588-1.6,13.7,13.7,0,0,1-.14-2.044h-.112a23.573,23.573,0,0,1-1.932,2.492A10.25,10.25,0,0,1,415.94-.7,9.514,9.514,0,0,1,413.168.448a15.1,15.1,0,0,1-3.64.392,13.7,13.7,0,0,1-3.78-.5,8.848,8.848,0,0,1-3.08-1.54A7.231,7.231,0,0,1,400.6-3.836a8.754,8.754,0,0,1-.756-3.78,7.471,7.471,0,0,1,1.344-4.732,8.458,8.458,0,0,1,3.556-2.6,20.284,20.284,0,0,1,4.984-1.26q2.772-.364,5.628-.7a16.793,16.793,0,0,0,1.932-.308,4.014,4.014,0,0,0,1.428-.588,2.526,2.526,0,0,0,.868-1.12,4.949,4.949,0,0,0,.308-1.9,6.436,6.436,0,0,0-.588-2.94,4.649,4.649,0,0,0-1.624-1.82,6.548,6.548,0,0,0-2.408-.924,16.276,16.276,0,0,0-2.94-.252,8.931,8.931,0,0,0-5.46,1.6q-2.156,1.6-2.268,5.124Zm18.816,4.256h-.112a2.022,2.022,0,0,1-1.288.9,13.145,13.145,0,0,1-1.68.392q-2.24.392-4.62.7a25.337,25.337,0,0,0-4.34.924,8.475,8.475,0,0,0-3.22,1.764,4.207,4.207,0,0,0-1.26,3.276,5.138,5.138,0,0,0,.532,2.38,5.775,5.775,0,0,0,1.428,1.792A6.234,6.234,0,0,0,407.4-2.52a7.567,7.567,0,0,0,2.408.392,12.138,12.138,0,0,0,3.864-.616,9.507,9.507,0,0,0,3.22-1.792,8.7,8.7,0,0,0,2.184-2.856,8.641,8.641,0,0,0,.812-3.808Z"
            transform="translate(-2708.305 -17267.184)" fill="#fff" />
        <g transform="matrix(1, 0, 0, 1, -2761, -17352.2)" filter="url(#a)">
            <path
                d="M3.4,0h22.68V-3.864H7.854V-29.988H3.4ZM28.1-14.994c0,7.686,4.62,15.75,16.674,15.75s16.674-8.064,16.674-15.75-4.62-15.75-16.674-15.75S28.1-22.68,28.1-14.994Zm28.9,0c0,7.938-5.376,11.886-12.222,11.886S32.55-7.056,32.55-14.994,37.926-26.88,44.772-26.88,56.994-22.932,56.994-14.994ZM82.74-12.306h9.828c-.462,5.334-4.7,9.2-11.214,9.2-6.258,0-11.676-3.276-11.676-11.76,0-6.384,3.528-12.012,11.466-12.012,5.67,0,8.778,2.184,10.164,6.342h4.7c-1.89-8.274-8.9-10.206-15.078-10.206-7.77,0-15.708,4.662-15.708,16.254C65.226-7.9,69.048.756,81.06.756c6.342,0,9.534-2.73,11.508-5.04L93.324,0h3.192V-16.17H82.74ZM103.278,0h4.452V-29.988h-4.452Zm8.778-9.87C112.056-1.6,119.07.756,125.832.756c6.048,0,12.894-2.184,12.894-9.828,0-6.132-6.678-7.266-9.03-7.686l-7.35-1.26c-3.7-.63-4.914-2.1-4.914-3.948,0-3.528,3.7-4.914,6.972-4.914,7.182,0,8.526,3.192,8.9,5.544h4.452c-.42-7.224-6.762-9.408-12.768-9.408-7.686,0-12.012,3.654-12.012,9.114,0,5.838,5.334,7.266,8.9,7.854l6.8,1.134c3.444.588,5.586,1.722,5.586,4.452,0,3.276-3.36,5.082-8.106,5.082-4.536,0-9.576-1.386-9.66-6.762ZM150.822,0h4.452V-26.124h11.34v-3.864H139.482v3.864h11.34ZM170.31,0h4.452V-29.988H170.31Zm40.446-19.194c-.756-8.988-9.03-11.55-15.036-11.55-10.248,0-15.708,6.93-15.708,15.666C180.012-3.4,188.2.756,195.762.756c8.568,0,14.28-5.586,14.994-12.222H206.3c-1.26,5.838-5.25,8.358-10.5,8.358-8.274,0-11.34-5.838-11.34-11.508,0-8.19,4.494-12.264,11.592-12.264,6.3,0,9.576,3.528,10.248,7.686ZM241.5-9.87C241.5-1.6,248.514.756,255.276.756c6.048,0,12.894-2.184,12.894-9.828,0-6.132-6.678-7.266-9.03-7.686l-7.35-1.26c-3.7-.63-4.914-2.1-4.914-3.948,0-3.528,3.7-4.914,6.972-4.914,7.182,0,8.526,3.192,8.9,5.544H267.2c-.42-7.224-6.762-9.408-12.768-9.408-7.686,0-12.012,3.654-12.012,9.114,0,5.838,5.334,7.266,8.9,7.854l6.8,1.134c3.444.588,5.586,1.722,5.586,4.452,0,3.276-3.36,5.082-8.106,5.082-4.536,0-9.576-1.386-9.66-6.762Zm42.588-6.468L274.3-29.988h-5.67l13.146,17.64V0h4.452V-12.558l13.23-17.43h-5.418ZM299.922-9.87C299.922-1.6,306.936.756,313.7.756c6.048,0,12.894-2.184,12.894-9.828,0-6.132-6.678-7.266-9.03-7.686l-7.35-1.26c-3.7-.63-4.914-2.1-4.914-3.948,0-3.528,3.7-4.914,6.972-4.914,7.182,0,8.526,3.192,8.9,5.544h4.452c-.42-7.224-6.762-9.408-12.768-9.408-7.686,0-12.012,3.654-12.012,9.114,0,5.838,5.334,7.266,8.9,7.854l6.8,1.134c3.444.588,5.586,1.722,5.586,4.452,0,3.276-3.36,5.082-8.106,5.082-4.536,0-9.576-1.386-9.66-6.762ZM338.688,0h4.452V-26.124h11.34v-3.864H327.348v3.864h11.34ZM357.8,0h24.528V-3.864H362.25v-9.7h19.068V-17.43H362.25v-8.694h19.656v-3.864H357.8Zm47.754-5.124L393.666-29.988h-6.258V0h4.452V-24.36h.084L403.578,0h3.948L419.2-24.864h.084V0h4.452V-29.988h-6.174Z"
                transform="translate(53.96 139.32)" fill="#1e85d9" />
        </g>
        <path
            d="M423.006.5h-3v-1h3Zm-6,0H414v-1h3.005Zm-6,0H408v-1h3.006Zm-6,0h-3v-1h3Zm-6,0h-3v-1h3Zm-6,0h-3v-1h3ZM387,.5h-3v-1h3Zm-5.995,0h-3v-1h3Zm-6,0h-3v-1h3Zm-6,0h-3v-1h3Zm-6,0h-3v-1h3Zm-6,0h-3v-1h3Zm-6,0h-3v-1h3Zm-6,0h-3v-1h3Zm-6,0h-3v-1h3Zm-6,0h-3v-1h3Zm-6,0h-3v-1h3Zm-6,0h-3v-1h3Zm-6,0h-3v-1h3Zm-6,0h-3v-1h3Zm-6,0h-3v-1h3Zm-6,0h-3v-1h3Zm-6,0h-3v-1h3Zm-6,0h-3v-1h3Zm-6,0h-3v-1h3Zm-6,0h-3v-1h3Zm-6,0h-3v-1h3Zm-6,0h-3v-1h3Zm-6,0h-3v-1h3Zm-6,0h-3v-1h3Zm-6,0h-3v-1h3Zm-6,0h-3v-1h3Zm-6,0h-3v-1h3Zm-6,0h-3v-1h3Zm-6,0h-3v-1h3Zm-6,0h-3v-1h3Zm-6,0h-3v-1h3Zm-6,0h-3v-1h3Zm-6,0h-3v-1h3Zm-6,0h-3v-1h3Zm-6,0h-3v-1h3Zm-6,0h-3v-1h3Zm-6,0h-3v-1h3Zm-6,0h-3v-1h3Zm-6,0h-3v-1h3Zm-6,0h-3v-1h3Zm-6,0h-3v-1h3Zm-6,0h-3v-1h3Zm-6,0h-3v-1h3Zm-6,0h-3v-1h3Zm-6,0h-3v-1h3Zm-6,0h-3v-1h3Zm-6,0h-3v-1h3Zm-6,0h-3v-1h3Zm-6,0h-3v-1h3Zm-6,0H90v-1h3Zm-6,0h-3v-1h3Zm-6,0H78v-1h3Zm-6,0h-3v-1h3Zm-6,0h-3v-1h3ZM63,.5H60v-1h3Zm-6,0h-3v-1h3Zm-6,0h-3v-1h3Zm-6,0h-3v-1h3Zm-6,0h-3v-1h3Zm-6,0h-3v-1h3ZM26.994.5H24v-1h3ZM20.988.5h-3v-1h3Zm-6,0h-3v-1h3Zm-6,0h-3v-1h3Zm-6,0H0v-1H2.984Z"
            transform="translate(-2702.585 -17254.525)" fill="#fff" opacity="0.4" />
    </g>
</svg>